<svg width="59" height="16" viewBox="0 0 59 16" fill="none" xmlns="http://www.w3.org/2000/svg">
<path d="M2.20369 6.56653C13.9231 7.52953 25.706 8.97496 37.4768 8.94592C42.5167 8.93348 47.7393 8.08375 52.764 8.49663" stroke="black" stroke-width="3" stroke-linecap="round"/>
<path d="M47.754 3.69872C47.5574 6.09126 47.3608 8.4838 47.1642 10.8763C47.1196 11.4198 47.1122 11.9831 47.0243 12.5216C47.0066 12.6304 46.8845 12.8282 47.0517 12.7017C47.3585 12.4694 47.7017 12.3131 48.0512 12.1567C48.7872 11.8272 49.5204 11.4739 50.2346 11.1006C51.0718 10.663 51.8431 10.046 52.7661 9.79689C53.5195 9.59359 54.3569 9.43725 55.0588 9.11947C55.5059 8.91707 55.8681 8.57265 56.3603 8.4308C56.4802 8.39626 56.9405 8.29801 57.0011 8.20733C57.0621 8.11607 54.7473 6.56834 54.5933 6.46972C54.0076 6.09482 53.5565 5.79975 52.9072 5.573C52.1954 5.32439 51.5036 5.01345 50.8106 4.71743C50.599 4.62702 50.4627 4.59524 50.2279 4.57594C49.9436 4.55258 49.7382 4.36722 49.47 4.34518" stroke="black" stroke-width="3" stroke-linecap="round"/>
<path d="M48.4982 10.2133C48.584 9.16922 48.6698 8.12516 48.7556 7.0811C48.8158 6.3488 48.6322 5.80584 49.4966 5.87687C50.7817 5.98247 52.0189 6.40265 52.813 7.33897" stroke="black" stroke-width="3" stroke-linecap="round"/>
</svg>
