<svg width="117" height="120" viewBox="0 0 117 120" fill="none" xmlns="http://www.w3.org/2000/svg">
<path d="M17.5734 73.0346C16.9058 74.7603 7.44705 99.5004 10.1325 96.9144C13.6092 93.5665 18.4867 80.3708 21.8994 79.091C27.1406 77.1255 16.2897 88.856 14.4586 94.1457C13.9739 95.5457 10.9407 102.363 15.1507 100.375C22.04 97.122 38.3395 83.9204 25.7063 97.6066C22.7495 100.81 37.5042 97.7159 39.3767 97.2605C46.3976 95.5527 55.5495 94.2389 60.8339 88.9545C68.5434 81.245 76.5966 74.6038 86.0981 69.5737C90.0789 67.4663 113.064 58.1817 101.672 55.9033" stroke="black" stroke-width="3" stroke-linecap="round" stroke-linejoin="round"/>
<path d="M2 101.067C2.575 91.7232 3.08996 82.3823 3.55736 73.0342" stroke="black" stroke-width="3" stroke-linecap="round" stroke-linejoin="round"/>
<path d="M6.67212 4.50928C65.4927 40.9219 -15.7696 -8.89462 30.0328 21.6405" stroke="black" stroke-width="3" stroke-linecap="round" stroke-linejoin="round"/>
<path d="M7.717 113.365C7.73693 113.302 15.924 87.7196 15.4174 93.2921C15.1898 95.7958 11.8199 102.381 12.6487 104.453C13.3 106.081 25.5022 84.6782 25.3673 84.8131C-2.70944 112.891 51.08 77.9938 47.5167 74.4305C44.968 71.8818 34.4845 71.7318 36.096 77.3723C38.232 84.8484 56.5075 60.5993 55.7362 52.8868C54.6337 41.8614 25.5723 63.1298 23.0313 68.7201C19.4893 76.5124 44.8904 55.6181 39.4703 48.9933C31.3788 39.1035 13.1927 61.0919 11.5239 67.8549C6.99923 86.1914 30.2628 56.2942 32.6351 50.5507C35.3063 44.0835 19.0637 61.8214 17.3208 64.6536C13.4502 70.9434 19.0667 52.0753 19.3108 51.0698C20.5249 46.0708 23.9233 35.7076 21.5604 30.3912C20.433 27.8546 15.9271 41.0503 15.85 41.3795C14.0658 48.9966 12.16 60.0335 17.4074 66.8167C21.9083 72.635 24.1067 65.5301 24.5021 61.6254C25.4886 51.8831 22.3539 42.4047 18.9647 33.4195C16.7302 27.4954 14.4771 19.9964 10.8317 14.7309C8.94611 12.0072 11.9476 21.0434 12.3892 21.8256C16.9139 29.8409 28.3782 46.0897 26.0594 26.8439C25.6803 23.6972 16.7796 10.4443 21.3008 10.8375C32.535 11.8143 61.7703 30.5501 51.1506 26.7574C49.2064 26.063 34.0596 20.2311 37.9994 23.383C48.8707 32.0802 83.4216 55.2648 73.3001 45.7055C65.0118 37.8776 49.8172 37.0534 39.1242 37.0534C25.354 37.0534 57.9254 45.0584 61.2736 46.3977C72.4228 50.8574 78.427 54.926 62.7445 55.6554C45.8818 56.4397 46.0405 51.5809 62.0523 52.9733C67.695 53.4639 71.8576 56.5932 72.7809 62.3176C73.3722 65.9838 71.109 77.0772 71.5696 73.3923C72.6103 65.067 94.2429 54.4934 85.5861 64.7402C80.5695 70.6782 62.7769 79.5339 80.7409 70.9697C86.8433 68.0604 107.83 64.4098 91.4695 66.2976C85.6733 66.9663 62.7215 70.4478 77.0205 60.5006C90.8625 50.8714 65.0547 70.8984 61.5331 72.7001C60.6252 73.1647 48.555 77.4766 48.555 78.2375C48.555 78.7087 52.875 76.8913 51.0642 75.3823C49.7105 74.2542 44.4381 77.7698 46.1324 77.2857C50.0818 76.1573 54.5686 69.8349 57.2071 66.9032C62.2384 61.313 44.8288 76.7095 42.3254 78.4105C39.5112 80.3228 24.7258 94.4114 22.9447 91.5617C16.2019 80.773 3.15862 98.8667 6.93832 79.9679C7.70964 76.1112 9.19224 1.92578 9.27436 1.92578C11.9052 1.92578 12.5022 6.28987 14.8117 7.54967C19.2615 9.97688 24.8083 11.3255 28.7417 14.3848C36.9039 20.7333 46.9659 19.5443 54.7845 27.363C60.825 33.4035 71.2337 33.6026 77.0205 39.3895C81.8568 44.2258 88.1893 48.5361 94.1517 51.8485C113.596 62.6508 78.3565 82.0459 67.6762 85.3322C57.2992 88.5252 45.98 94.8935 36.9612 100.906C31.9674 104.235 19.7207 111.166 13.9465 111.808C4.90873 112.812 3.04481 126.102 3.04481 109.212C3.04481 89.1408 1.64879 68.5738 3.13133 48.5607C3.89773 38.215 6.15964 26.971 6.15964 16.8074C6.15964 11.9354 6.0997 -3.64834 9.27436 7.46315" stroke="black" stroke-width="3" stroke-linecap="round" stroke-linejoin="round"/>
<path d="M22.2456 34.0998C22.4763 34.1751 39.4324 39.0283 39.0308 38.4259C36.6234 34.8147 31.7522 30.9691 27.9561 28.9951C20.6638 25.203 21.7574 33.3764 22.9378 38.4259C23.7866 42.0566 33.0488 56.622 31.417 45.6071C30.9335 42.3437 23.3917 21.8436 19.477 22.3329C18.4897 22.4564 26.0095 37.0414 27.5235 35.2246C30.6572 31.4641 21.7887 21.9118 19.1309 19.7373C6.32237 9.25736 42.3869 23.5582 45.2603 24.7555C54.8049 28.7324 61.0496 37.2758 70.8706 40.6754C75.9551 42.4354 81.3898 42.9934 86.0983 45.3476C89.9052 47.2509 95.8491 49.6736 100.115 49.6736C100.655 49.6736 98.2976 50.1927 102.537 52.0097C104.32 52.7737 115.227 57.9246 114.996 60.2292C114.738 62.809 85.1235 71.377 81.4262 71.4769C76.8426 71.6008 64.6575 77.2121 72.0819 74.5917C79.6893 71.9067 85.9452 66.3655 93.4526 63.8631C99.5333 61.8362 80.9449 66.6731 74.6775 68.0161C72.111 68.5661 100.909 69.178 93.5392 62.4788C84.8965 54.6222 72.4559 51.1756 64.295 43.4441C58.4116 37.8702 52.917 33.1874 45.6064 29.4277C39.1057 26.0845 32.1457 23.9969 27.783 18.1799C25.8565 15.6112 14.8871 7.19593 12.9014 9.18169" stroke="black" stroke-width="3" stroke-linecap="round" stroke-linejoin="round"/>
<path d="M35.767 96.3951C39.9138 88.1534 44.1713 75.6163 50.3891 68.3622C53.2433 65.0323 49.4781 77.1372 48.2261 81.3404C46.8276 86.0353 40.7297 97.8937 45.1113 95.7029C48.922 93.7976 53.065 79.8018 54.2826 76.1491C54.7778 74.6634 58.5171 56.7694 57.2243 64.3822C56.636 67.8466 49.5602 97.3013 61.0312 87.916C65.9894 83.8594 69.8792 76.7831 72.1925 70.8714C75.1452 63.3256 65.642 69.7701 62.5886 71.1309C60.2662 72.1659 49.1218 76.7234 49.4374 76.2357C54.6315 68.2084 59.7134 58.9151 60.339 49.1545C61.5236 30.6739 17.2313 57.6859 12.2333 63.344C8.7716 67.2629 8.15736 71.1055 14.2233 68.8814C22.2318 65.9449 27.813 59.1204 29.1914 50.7119C30.7659 41.107 22.7964 50.8373 21.0584 53.8267C16.7736 61.1965 14.6664 70.3722 15.521 78.9178C15.8918 82.6252 41.3497 67.4816 33.8636 54.1728C32.439 51.6402 26.4766 101.881 37.3244 82.8978C42.4467 73.9339 42.3445 61.5687 41.91 51.5771C41.52 42.6066 39.5584 44.1894 42.6887 51.9232C43.9665 55.08 49.2564 69.6286 55.1478 65.4205C64.0472 59.0638 56.651 42.2371 52.5521 35.6572C50.6317 32.5744 39.3092 13.9821 33.6905 16.536C28.8739 18.7254 38.8807 27.4065 39.92 28.2164C45.8076 32.8041 54.0214 38.5989 61.8964 38.5989C67.3066 38.5989 58.9901 28.8725 57.5704 27.8703C55.2626 26.2413 48.702 22.5683 46.063 25.7938C41.7264 31.0941 53.5561 38.4471 56.7052 40.3293C62.2478 43.6422 81.5048 46.5589 75.0476 46.5589C73.5251 46.5589 68.3375 45.6744 67.2607 46.905C65.4831 48.9366 100.514 51.8634 84.3919 54.6919C72.9623 56.6971 77.6055 58.5475 85.6032 59.0179C96.015 59.6304 76.5927 71.1433 83.6997 64.0362C88.5673 59.1686 106.479 60.8532 92.1788 58.6718C88.1693 58.0602 68.5586 48.1162 79.7198 48.1162C83.7641 48.1162 105.219 52.7264 105.157 52.7884C95.1327 62.8129 78.7413 71.0031 65.1842 74.5918C58.105 76.4657 61.1519 76.2023 66.309 75.3704C74.3636 74.0713 82.6627 74.5917 90.7945 74.5917C99.1927 74.5917 81.9529 75.2128 80.1524 75.5435C71.3849 77.1539 61.0802 79.5533 53.2443 83.936C49.1226 86.2414 49.5842 87.0508 53.5038 87.0508C59.54 87.0508 42.7112 92.4601 37.3244 95.1838C29.5378 99.1208 22.6554 103.277 16.4728 109.46C12.3745 113.558 11.6567 115.203 17.0785 110.758C32.3634 98.224 17.2384 108.016 10.6759 114.392C5.022 119.884 4.61938 102.002 4.61938 97.9525C4.61938 89.7649 6.93134 83.9814 8.94547 76.1491C12.7314 61.4269 17.0785 52.9855 17.0785 37.2146" stroke="black" stroke-width="3" stroke-linecap="round" stroke-linejoin="round"/>
</svg>
