<?xml version="1.0" encoding="utf-8"?>
<!-- Generator: Adobe Illustrator 22.0.1, SVG Export Plug-In . SVG Version: 6.00 Build 0)  -->
<svg version="1.1" xmlns="http://www.w3.org/2000/svg" xmlns:xlink="http://www.w3.org/1999/xlink" x="0px" y="0px"
	 viewBox="0 0 31 31" style="enable-background:new 0 0 31 31;" xml:space="preserve">
<g id="Layer_2">
	<path d="M15.5,0.5c-8.3,0-15,6.7-15,15c0,8.3,6.7,15,15,15s15-6.7,15-15C30.5,7.2,23.8,0.5,15.5,0.5z M28,15.5c0,2.9-1,5.5-2.6,7.6
		L17.8,3.2C23.6,4.3,28,9.4,28,15.5z M15.5,5.7l4.6,12.1h-9.2L15.5,5.7z M13.2,3.2L5.6,23.1C4,21,3,18.4,3,15.5
		C3,9.4,7.4,4.3,13.2,3.2z M8.1,25.5l1.9-4.8h11.2l1.9,4.8c-2.1,1.5-4.6,2.5-7.4,2.5S10.1,27.1,8.1,25.5z"/>
</g>
<g id="Layer_3">
</g>
</svg>
