<svg width="65" height="65" viewBox="0 0 65 65" fill="none" xmlns="http://www.w3.org/2000/svg">
<path d="M2.77018 6.58634C3.32587 22.9284 2.77018 39.2436 2.77018 55.5918C2.77018 56.765 2.87387 61.8644 3.76888 62.7459C5.43659 64.3884 10.0675 57.5557 10.9868 56.9332C15.5743 53.8267 20.3456 51.4293 25.1049 48.6166C34.8464 42.8595 47.2148 38.9569 55.7017 31.3573C57.0762 30.1265 60.976 27.9623 62.8289 27.5567C64.3263 27.229 55.5492 23.9263 53.8859 23.309C45.3606 20.145 36.8522 17.3774 28.2826 14.4558C22.6741 12.5438 17.8795 9.08699 12.5757 6.76519C9.7198 5.51499 5.30977 4.24121 2.95176 2.38333C0.157886 0.182043 4.40446 8.10538 4.40446 9.80574" stroke="white" stroke-width="3" stroke-linecap="round" stroke-linejoin="round" fill="transparent" />
</svg>
