<svg width="65" height="65" viewBox="0 0 65 65" fill="none" xmlns="http://www.w3.org/2000/svg">
	<path d="M62.2298 58.4137C61.6741 42.0716 62.2298 25.7564 62.2298 9.40824C62.2298 8.23497 62.1261 3.13565 61.2311 2.25414C59.5634 0.611621 54.9325 7.44432 54.0132 8.06685C49.4257 11.1733 44.6544 13.5707 39.8951 16.3834C30.1536 22.1405 17.7852 26.0431 9.2983 33.6427C7.9238 34.8735 4.02402 37.0377 2.17113 37.4433C0.67366 37.771 9.45078 41.0737 11.1141 41.691C19.6394 44.855 28.1478 47.6226 36.7174 50.5442C42.3259 52.4562 47.1205 55.913 52.4243 58.2348C55.2802 59.485 59.6902 60.7588 62.0482 62.6167C64.8421 64.818 60.5955 56.8946 60.5955 55.1943" stroke="white" stroke-width="3" stroke-linecap="round" stroke-linejoin="round" fill="transparent" />
</svg>
