<?xml version="1.0" encoding="utf-8"?>
<!-- Generator: Adobe Illustrator 22.0.1, SVG Export Plug-In . SVG Version: 6.00 Build 0)  -->
<svg version="1.1" id="Layer_1" xmlns="http://www.w3.org/2000/svg" xmlns:xlink="http://www.w3.org/1999/xlink" x="0px" y="0px"
	 viewBox="0 0 48.1 13.3" style="enable-background:new 0 0 48.1 13.3;" xml:space="preserve">
<g>
	<path d="M27.5,9.1c-9.1,0-12.6-0.3-20.1-0.9C5.9,8,4.2,7.9,2.2,7.7C1.4,7.6,0.8,6.9,0.8,6.1c0.1-0.8,0.8-1.4,1.6-1.4
		c2,0.2,3.7,0.3,5.2,0.4c7.7,0.7,11.2,1,20.9,0.9c2,0,3.8-0.1,5.4-0.3c2.5-0.2,4.9-0.4,8-0.2c0.8,0.1,1.4,0.8,1.4,1.6
		c-0.1,0.8-0.8,1.4-1.6,1.4c-2.8-0.2-5.1,0-7.5,0.2c-1.7,0.1-3.5,0.3-5.7,0.3C28.2,9.1,27.9,9.1,27.5,9.1z"/>
</g>
<g>
	<path d="M36.2,13.2l-1-0.6l-0.9-0.7l0.4-1.1c0-0.3,0.1-0.6,0.1-0.9c0-0.2,0-0.4,0-0.6l0.6-7.2c0.1-0.8,0.8-1.4,1.6-1.4
		c0.5,0,0.9,0.3,1.2,0.7c0.2-0.1,0.4-0.1,0.6-0.1c0.4,0,0.7,0.2,0.8,0.2c0,0,0,0,0,0c0.3,0,0.6,0.1,0.9,0.2l0.4,0.2
		c0.5,0.2,1.1,0.5,1.6,0.7c0.8,0.3,1.4,0.6,1.9,1c3,1.9,3,2.2,3.1,2.7l0.1,0.6l-0.4,0.5c-0.4,0.5-1,0.7-1.4,0.8
		c-0.1,0-0.3,0.1-0.4,0.2C45.3,8.9,45,9,44.8,9.1c-0.6,0.3-1.3,0.5-2,0.6c-0.2,0-0.4,0.1-0.6,0.1c-0.4,0.1-0.9,0.4-1.3,0.7
		c-0.3,0.2-0.6,0.4-0.9,0.5c-0.7,0.4-1.5,0.7-2.3,1.1c-0.3,0.1-0.5,0.2-0.7,0.4L36.2,13.2z M38.2,4.4l-0.4,4.4
		c0.3-0.1,0.5-0.3,0.8-0.4c0.2-0.1,0.5-0.3,0.7-0.4c0.6-0.4,1.3-0.8,2.1-1c0.2-0.1,0.4-0.1,0.6-0.2c0.4-0.1,0.7-0.2,1-0.3
		c-0.1-0.1-0.2-0.1-0.3-0.2C42.3,6,42,5.8,41.5,5.6c-0.6-0.2-1.2-0.5-1.8-0.7l-0.5-0.2c-0.4,0-0.7-0.2-0.9-0.2c0,0,0,0,0,0
		C38.3,4.5,38.3,4.4,38.2,4.4z M38.5,4.5C38.5,4.5,38.5,4.5,38.5,4.5C38.5,4.5,38.5,4.5,38.5,4.5z"/>
</g>
<g>
	<path d="M37.6,10.4c0,0-0.1,0-0.1,0c-0.8-0.1-1.4-0.8-1.4-1.6l0.3-3.1c0-0.1,0-0.2,0-0.3c0-0.5,0-1.2,0.7-1.8C37.5,3.1,38,3,38.7,3
		c1.9,0.2,3.4,0.8,4.3,2c0.5,0.6,0.5,1.6-0.2,2.1c-0.6,0.5-1.6,0.5-2.1-0.2c-0.4-0.4-0.9-0.7-1.4-0.8L39.1,9
		C39,9.8,38.4,10.4,37.6,10.4z"/>
</g>
</svg>
