<?xml version="1.0" encoding="utf-8"?>
<!-- Generator: Adobe Illustrator 22.0.1, SVG Export Plug-In . SVG Version: 6.00 Build 0)  -->
<svg version="1.1" id="Réteg_2" xmlns="http://www.w3.org/2000/svg" xmlns:xlink="http://www.w3.org/1999/xlink" x="0px" y="0px"
	 viewBox="0 0 975 800" style="enable-background:new 0 0 975 800;" xml:space="preserve">
<title>Rajztábla 1@2xdd</title>
<path d="M940.2,387.3c-11.4-24.3-25-47-34.3-72.2c-4.4-12-8.8-24.3-15.4-35.4c-6.2-10.5-14.3-19.7-22.9-28.3
	c-18.4-18.5-37.7-36.2-57-53.7s-39.2-34.4-60.1-50.1c-41.6-31-87.7-54.7-135.5-74.7c-24-10-48.3-19.1-72.7-27.9
	c-21.5-7.7-42.9-15.8-65-21.7C397.7,2.1,311.3,2.5,231,20.3c-36.5,8.1-72.6,20.2-105.4,38.4c-14.4,7.9-27.9,17.3-40.3,28
	C71,99.3,59.2,114.5,48.8,130.5c-48.6,74.7-54.5,167.6-30,251.7c24.4,83.7,76.6,159.1,138.4,219.7
	c61.6,60.3,135.7,107.2,215.4,139.9c85.4,35,178.3,54.5,270.8,50.8c49.3-2,98.4-10.4,145.2-26.2c44.1-15,90-35.9,123.5-69
	c31.3-30.9,47-75,53.7-117.7c6.9-44.4,5.1-89.6-5.3-133.3C955.7,426,948.9,406.2,940.2,387.3c-2.7-5.8-11.3-0.8-8.6,5
	c18,39,26.9,82.2,28.2,125s-5.1,86.9-22.9,126.1c-9.1,20-21.3,37.5-37.7,52.3c-16.9,15.3-36.7,27.1-57,37.4
	c-43.5,22-90.6,36.2-138.7,43.7c-92.5,14.4-187.1,2.9-275.8-25.6c-79.9-25.6-155.6-65.4-220.8-118.4S85.9,513.1,50.1,436.9
	c-36.3-77.2-48.9-168-18.9-249.4c13.4-36.4,35.1-72.3,65.4-97.1c26.2-21.6,57.8-36.4,89.8-47.2c75.1-25.4,158.2-31.8,236.6-20.7
	c19.7,2.8,39.3,6.9,58.5,12.3c21.8,6.2,43,14.3,64.2,22C593,74,640.2,92.6,684.4,117c45.1,24.9,85.2,56.7,123.2,91.4
	c18.5,16.9,37.2,33.9,54.7,51.9c8.8,9,16.7,18.6,22.5,29.8c5.7,11,9.5,22.7,13.9,34.2c8.9,23.7,22.2,45.1,32.9,67.9
	C934.3,398.1,942.9,393,940.2,387.3z"/>
<path d="M428.1,98.2c-0.1-6.5,0.1-13,0.6-19.4c0.2-2.2,0.2-6.7,1.8-8.6s6.3-1.1,8.8-1.2l19.5-0.5l10.8-0.3c2.7-0.1,7-1,9.4,0l-3-2.3
	c0.5,0.8,0.3,5.6,0.4,7.6c0.1,3.3,0.3,6.6,0.5,9.9c0.3,6.9,0.7,13.9,1.1,20.8c0.8,13.5,1.6,27,2.5,40.5c0.3,4.1,5.4,6.9,8.5,3.5
	c14.1-14.9,33-23.5,52.9-27.5c18.8-3.7,41.2-4.5,58,6.2c18.7,12,23.8,36.8,25.9,57.3c2.5,24.1,3.5,48.3,3.1,72.5
	c-0.1,3.6-0.2,7.3-0.4,10.9c-0.1,2,0.5,9.3-0.7,10.9c-1.5,2-5.5,1.2-8,1.2l-9.7,0.3l-42.8,1.2l4.8,3.7c-2.3-13.3,1-26.8,2.2-40
	c1.2-13.3,1.2-26.6,0.1-39.9c-1.7-20.2-3.9-46.1-27.4-51.9c-20.1-5-48.7,1.3-60.1,20.2c-5.8,9.7-5.8,22.5-6.5,33.5
	c-0.8,13.1-0.7,26.3-0.5,39.4c0.1,7.6,0.3,15.1,0.4,22.7c0,3.5-0.3,7.3,0.1,10.9s0.7,1.2-0.8,1.9s-4.4,0.2-5.8,0.2
	c-14.7,0.5-29.5,0.6-44.2,0.3l4.8,3.7c-5.5-29.8-6.6-60.3-6.6-90.6C428,162.9,428,130.5,428.1,98.2c-0.1-6.4-10.1-6.5-10.1,0
	c0,33,0,66,0,99.1c0,30.5,1.4,61.2,6.9,91.2c0.4,2.2,2.8,3.6,4.8,3.7c12.5,0.3,25,0.3,37.5-0.1c8.2-0.2,22.5,1.9,23.2-9.6
	c0.8-12.6-0.4-25.6-0.5-38.2c-0.2-12.6-0.2-25,0.6-37.5c0.6-10.7,0.2-24,8.1-32.3c7.5-7.9,19.4-11.9,30-12.8s23.3,0.5,29,10.7
	c5.2,9.2,5.8,21.4,6.7,31.7c1.2,13.9,1.2,27.9-0.1,41.8c-1.3,14-4.2,27.7-1.8,41.7c0.6,2.2,2.6,3.7,4.8,3.7l42.8-1.2
	c6.2-0.2,13.4,0.6,19.5-0.8c5.6-1.3,7.7-5.4,8.2-10.7c2.9-28.3,0.9-57.3-1.2-85.6c-1.8-23.7-5.3-50.6-23.3-68.1
	c-16.5-16.1-41.5-18.1-63.2-15.4c-25.4,3.1-50.2,13-68.1,31.7l8.5,3.5c-1.2-17.1-2.2-34.2-3.1-51.4c-0.5-8.6-0.7-17.1-1.3-25.7
	c-0.5-7.4-3.4-9.7-10.7-9.5L451,58.7L438.3,59c-3.3,0.1-6.9-0.2-10.1,0.8c-6.7,2-8.2,8.9-9,14.9c-0.9,7.8-1.3,15.7-1.1,23.5
	C418.1,104.6,428.1,104.6,428.1,98.2z"/>
<path d="M348.3,154.9c-6.7-5.9-16.4-10.6-25.6-8.2s-13.4,16.9-15.3,24.9l6.1-3.5c-4.8-1.7-9.5-3.5-14.1-5.6
	c-1.9-0.9-3.9-1.8-5.8-2.7l-3.2-1.7c-0.6-0.3-2.6-2.2-2.2-0.9c-0.4-1.1,2.1-5.2,2.6-6.2c0.8-1.7,1.6-3.4,2.5-5.1
	c2.1-4.1,4.7-8,7.7-11.6c11.6-13.5,31.1-18.3,47.4-10.5c16.6,7.9,23.6,25.1,25,42.5c0.8,10.1,0.3,20.2,0.1,30.2
	c-0.1,10.4,0.3,20.8,1.3,31.1c1.1,11.5,2.6,23,4.2,34.4c1.4,10.3,3.1,20.2,7.3,29.8l4.3-7.5c-7.5,0.4-15,0.5-22.5,0.2
	c-1.1,0-5.1,0.3-5.6-0.3c0.7,0.9-0.6-3.8-0.5-3.6c-0.9-3.5-1.8-7-2.7-10.5c-0.8-3-4.6-4.8-7.3-3c-6.2,4.1-10.1,10.1-15.4,15.1
	c-6.9,6.5-16.1,5-24.3,2c-14.2-5.2-26.6-17-31-31.6c-4.3-14.4-0.9-31.1,10-41.7c13.3-13,32-15.8,49.1-20.1
	c7.5-1.9,13.8-6.6,15.3-14.6C357,168.3,353.8,160.3,348.3,154.9c-4.6-4.5-11.7,2.5-7.1,7.1c4.8,4.7,7.6,14.4,0,18
	c-3.7,1.7-8.1,2-12.1,2.8c-5.1,1-10.1,2.4-15.1,4.2c-16.1,5.7-32.2,14.5-39.6,30.7c-14.2,31,4.3,65,35.1,76.2
	c8.9,3.2,19.5,4.8,28.1,0c7.9-4.5,11.9-13.2,19.4-18.1l-7.3-3c1.8,6.9,2.2,19.3,10.7,21.1c4.5,1,9.8,0.7,14.4,0.7
	c5.3,0.1,10.6-0.1,15.9-0.4c4.1-0.2,5.9-4,4.3-7.5c-4.7-10.6-5.7-22.5-7.2-33.8c-1.6-12-3.1-24-3.8-36.1
	c-1.4-22.5,2.8-46.1-3.6-68.1c-5.4-18.7-19.6-34.2-39.2-37.9c-20.5-3.9-40.2,5.4-51.9,22.4c-3,4.4-5.6,9.2-7.7,14.1
	c-1.9,4.3-5.2,9.8-2.6,14.4c2.5,4.4,9.4,6.5,13.8,8.6c5.9,2.8,12,5.2,18.1,7.4c2.7,0.7,5.4-0.8,6.1-3.5c0,0,0,0,0,0
	c0.8-3.5,2-6.9,3.5-10.2c1.1-2.4,2.7-6.5,5.1-7.5c5.1-2,12.1,2.3,15.7,5.5C346.1,166.2,353.2,159.1,348.3,154.9z"/>
<path d="M243.4,63.7l-0.9-1.1c0.1,1.3,0.1,2.6,0.1,3.9c0.1,2,0.1,3.9,0.2,5.8c0.1,3.9,0.1,7.8,0.2,11.7c0,8.4,0,16.9-0.1,25.3
	c-0.2,16.2-0.4,32.4,0.2,48.6c0.6,15.9,2.3,31.7,5.3,47.4c3,15.7,7.1,31.2,7.2,47.3c0,7.9-0.4,15.8-1.3,23.6c-0.1,1,0,5.2-0.6,5.9
	s-2.4,0.5-3.4,0.5c-4.4,0.2-8.9,0.3-13.3,0.4c-3.8,0.1-7.6,0.1-11.4,0c-1.9,0-3.8,0-5.7-0.1c-2.4-0.1-2.5,0.3-3.6-1.5
	c-1.5-2.6-1.2-7.9-1.7-10.9c-0.7-4.7-1.3-9.4-2-14.1c-4.4-31.9-6.7-64-6.9-96.2c0-34.6,1.8-69.3-3.2-103.7l-4.8,6.3L243.4,63.7
	c6.4,0.1,6.4-9.9,0-10.1l-45.5-0.9c-3.6-0.1-5.3,3.2-4.8,6.3c5.1,35,2.6,70.4,2.8,105.6c0.2,36.3,3.9,72.5,9.2,108.4
	c0.9,6.3,0.6,15.7,7.5,18.7c3.2,1.4,6.9,1.1,10.2,1.1c4.8,0.1,9.5,0.1,14.2,0c4.1-0.1,8.2-0.2,12.3-0.4c3.3-0.1,7.1,0,10-1.9
	c6-3.8,5-14.4,5.5-20.5c1.5-18-0.1-35.2-3.8-52.8c-3.7-18.2-6.8-36.1-7.8-54.6c-1.1-20.4-0.6-40.8-0.4-61.2
	c0.1-10.4,0.1-20.8-0.1-31.1c-0.2-7.8,0.4-16.2-9.4-16.7C236.9,53.3,236.9,63.3,243.4,63.7z"/>
<path d="M387.2,670.8c8.7,9.1,24.1,13.3,35.4,6.4c6.4-3.9,9.3-10.6,12.2-17.2l5.5-12.9c0.2-0.6,1.1-2,1.1-2.6l0.4-0.9
	c-1.5,0.3-1.6,0.6-0.3,0.8c1.3,1.4,5.3,1.9,7.1,2.7c2.2,0.9,4.5,1.8,6.7,2.8c1.5,0.7,4.6,1.5,5.8,2.7c1.9,2,0.5,8.3,0.3,11.3
	c-0.7,8.5-2.5,16.7-7.4,23.8c-4.7,6.8-11.5,12.6-17.9,17.7s-13.7,9.9-21.8,12c-36,9.4-61.7-37.4-63.9-67
	c-2.2-30.9-4.7-76.4,25.9-95.3c8.2-5.1,17.8-6.9,27.4-7.2c9.2-0.3,19.4-0.3,28.3,2c9.2,2.4,15.2,9.3,20.1,17.1
	c5.4,8.5,10.2,17.3,15,26.1l3-7.3c-11.6,4.6-23.4,9-35,13.5l6.1,3.5c-4-11.8-9.7-25.6-23.3-28.6c-12.9-2.8-23.3,7-29.2,17.4
	C376,614,369,649.5,387.2,670.8c4.2,4.9,11.3-2.2,7.1-7.1c-13.8-16.2-7.8-43.7,0-61.2c3.3-7.4,9.1-18.5,18.5-18.9
	c11.2-0.5,15.8,13.4,18.7,21.8c0.8,2.3,3.5,4.5,6.1,3.5c11.6-4.6,23.4-9,35-13.5c3-1.2,4.7-4.3,3-7.3c-4.8-8.8-9.6-17.7-15-26.1
	c-4.6-7.3-10.2-14.5-18-18.6c-8.2-4.3-17.8-4.9-26.9-5.3c-9.9-0.5-20-0.3-29.7,2.2c-17.2,4.4-30.4,17-37.7,33
	c-8.6,18.8-9.1,39.7-8.7,60c0.2,10.6,0.3,21.3,2.7,31.7c2.2,9.6,6.6,18.8,11.5,27.4c9.1,15.8,22.6,30.4,41,34.9
	c18.6,4.5,35.5-4,49.6-15.7c7.2-6,14.5-12.7,19.5-20.8s6.7-17.5,7.4-26.8c0.4-4.5,1.5-10.5-0.3-14.8c-2-4.9-8-6.6-12.5-8.6
	c-5.2-2.2-10.6-4.9-16.1-6.2c-5.2-1.3-8.1,1.5-10,6c-2.5,5.7-4.9,11.5-7.4,17.2c-1.8,4.1-3.5,8.6-7.5,11c-7.5,4.7-17.7,1.1-23.3-4.8
	C389.8,659,382.7,666.1,387.2,670.8z"/>
<path d="M488.5,396c-2.5-13.9-8.4-24.5-22-29.8c-13-5.1-28.5-4.5-41.7-0.5c-12.8,3.9-26.6,11.6-29.6,25.7
	c-1.6,7.7-1.5,15.9-1.7,23.8c-0.3,8.5-0.4,17-0.4,25.6c0.1,19.7,1.1,39.3,3,58.9l5-5l-66.4,0.6l5,5c-3.3-29.6-6.6-59.3-9.9-88.9
	c-1.3-12-2-25.5-8-36.3c-6.2-11-17.4-11.7-28.8-12.3c-22.4-1.1-51.2,2.9-58.6,28.2c-3.8,12.8-0.9,27.3,0.1,40.3l3.4,43.5l0.9,11.9
	c0.2,2,0.3,4,0.5,5.9c0.1,0.9,0.2,1.8,0.2,2.7s0,0.9,0.3,0c-0.8,0.6-4.1,0-5.1,0c-2.3,0-4.5,0-6.8-0.1c-4.2-0.1-8.3-0.2-12.5-0.3
	c-16-0.5-32.1-1.4-48.1-1.3l5,5c-0.2-38.8-0.3-77.5-0.5-116.3l-0.1-28.8v-8v-2c0.3-2.2,0.2-2.6-0.4-1.3c1.1-0.8,6.3,0,7.8,0h44.6
	c1.3,0.1,1.5,0,0.4-0.1c0.8,1.1,0.2,5.6,0.2,7c0.1,2.4,0.2,4.7,0.2,7.1c0.1,2.8,2.4,5,5.2,4.9c1.2,0,2.4-0.5,3.3-1.4
	c26.1-22.6,62.1-32.6,96-25.8c16.9,3.4,32.9,10.5,46.7,20.9c5.7,4.3,11,10.1,18.3,5.3c3.1-2,5.7-4.8,8.8-6.9
	c3.3-2.2,6.8-4.2,10.4-5.8c30.4-13.7,68-7.5,99.6-2.5c8.2,1.3,17.5,2.1,24.7,6.7c6.9,4.5,10,12.3,11.8,20.1
	c4.3,18.6,4,38.4,4.7,57.4c0.4,11.2,0.8,22.4,1.1,33.6c0.2,5.6,0.4,11.2,0.6,16.8l0.3,8.9c0,1-0.2,6.9,1.1,5.6
	c-1,0.9-7.2,0.8-8.5,0.9l-8.7,0.9l-16.5,1.8l-33.8,3.8l5,5C497,469.5,495,432.4,488.5,396c-1.1-6.3-10.8-3.6-9.6,2.7
	c6.3,35.5,8.2,71.7,5.6,107.7c-0.2,2.5,2.4,5.3,5,5l64.9-7c3.6-0.4,7.5-0.4,10-3.4c2.8-3.4,1.8-8.5,1.7-12.5
	c-0.4-11.2-0.8-22.4-1.1-33.6c-0.7-21.8-0.8-43.8-3-65.6c-1.6-16.6-3.8-36.4-19.3-46.2c-7.8-4.9-17.2-6.2-26.1-7.6
	c-10-1.6-20.1-2.9-30.2-4.1c-17.6-1.9-35.4-2.7-53,0c-8.2,1.2-16.1,3.5-23.7,6.8c-3.7,1.6-7.2,3.4-10.5,5.6
	c-1.7,1.1-3.3,2.2-4.8,3.4c-1.3,1-3.7,3.9-5.2,4.3c-2.6,0.6-7.3-4.6-9.6-6.3c-4.1-3-8.3-5.6-12.7-8.1c-8-4.4-16.4-7.8-25.2-10.4
	c-40.2-11.7-84-1.4-115.6,25.9l8.5,3.5c-0.1-3.8-0.2-7.6-0.4-11.5c-0.1-3.2,0-6.6-2.1-9.3c-4.3-5.3-14.1-3.3-20-3.3h-26.2
	c-4.2,0-8.4,0-12.6,0c-3.3,0-6.9,0-9.4,2.6c-2,2.1-2.1,4.9-2.2,7.6c0,4.6,0,9.3,0.1,13.9l0.1,26.9c0.1,17.9,0.1,35.8,0.2,53.7
	c0.1,20.5,0.2,41.1,0.3,61.6c0,2.7,2.3,5,5,5c13.5,0,27,0.5,40.5,1.1c6.4,0.2,12.8,0.5,19.2,0.6c5.3,0.1,12.8,1.4,17.8-1.1
	c4.7-2.3,5-6.9,4.7-11.6c-0.5-7.2-1.1-14.5-1.7-21.8c-1.1-13.9-2.2-27.7-3.3-41.5c-0.9-11.9-4.2-26.7,0.5-38.1
	c4.3-10.4,15.5-15.8,26-17.7c6.1-0.9,12.3-1.2,18.5-0.9c5.7,0.2,13.3-0.5,18.6,2.1c4.8,2.3,6.7,7.9,8,12.7
	c1.7,6.6,2.8,13.3,3.4,20.1c3.5,30.9,6.8,61.8,10.3,92.7c0.3,2.7,2,5,5,5l66.4-0.6c2.5,0,5.3-2.3,5-5c-1.7-18.3-2.8-36.6-3-55
	c-0.1-9.2,0-18.4,0.2-27.5c0.2-8.4-0.8-19.5,2.8-27.3c3.2-6.9,11.2-10.9,18-13.4c7.8-2.9,16.1-4.2,24.3-3.8c7.1,0.3,14.6,1.8,20.5,6
	c6.7,4.7,8.4,12.3,9.8,20C480,405,489.7,402.3,488.5,396z"/>
<path d="M615.7,716.9c-7.6-1.5-15.6-4-23.2-4.6l-1.9-0.4c0.9,1.1,1,0.7,0.3-1.3c-0.2-1.9-0.5-3.8-0.9-5.6c-0.6-3.8-1.2-7.5-1.8-11.3
	c-0.4-2.5-3.8-4.4-6.2-3.5c-6.7,2.6-7.5,8.1-11,13.5s-10.3,7.6-16.4,8.9c-7.7,1.5-15.5,2.2-23.4,2.2c-4.2,0.1-8.8,0.4-12.4-2
	c-3.1-2-5.4-5.5-7-8.7c-6.7-13.7-4.2-31.3-4.1-46.1c0-17.9-0.2-35.7-0.5-53.6c-0.4-20.1-1-40.2-1.8-60.2l-5,5l12.1-0.6
	c2-0.1,10.8-1.7,12.1-0.3c1.4,1.6-0.6,8.4-0.9,10.6c-0.6,5.2-1,10.3-1.3,15.5c-1.1,18.5-0.7,37,1.3,55.4c1.7,15,2.4,34.2,13.5,45.8
	c10,10.4,25.5,10.1,34.4-1.4c10.2-13.2,7-33,6.2-48.5c-0.9-18.5-2.2-37-2.3-55.6c0-4.5,0-9.1,0.2-13.6c0.1-2.3,0.2-4.5,0.3-6.8
	c0.1-1,0.2-1.9,0.2-2.9l0.4-1.3c-0.8,0.5-0.9,0.7-0.1,0.5c8.8-0.5,17.8,0.3,26.7,0.4c2.3,0,4.5,0.1,6.8,0.1c2.6,0,1.7,0.4,1.7,3
	c-0.1,5-0.1,9.9-0.2,14.9c-0.1,9.6-0.3,19.2-0.4,28.9l-1.7,128.4c-0.1,6.4,9.9,6.4,10,0c0.5-39.5,1-79,1.5-118.5
	c0.1-9.6,0.3-19.2,0.4-28.9c0.1-9.6,1.2-19.7,0.3-29.3s-10.2-8.6-17.5-8.7c-9.2-0.1-18.5-0.6-27.6-0.4c-8.2,0.2-10.1,6.5-10.5,13.7
	c-0.5,9.4-0.6,18.8-0.4,28.3c0.4,19.5,2,39,2.6,58.5c0.3,8.6,1.3,18.2-1.7,26.4c-2.5,6.9-9.2,12.8-16.8,9.6
	c-7.9-3.3-10.9-12.1-12.6-19.8c-1.9-9.1-3.2-18.3-4-27.6c-2.1-21.7-1.9-43.5,0.4-65.1c0.8-7,4-18.1-5.2-21.2
	c-3.9-1.3-8.5-0.4-12.5-0.2l-15.6,0.8c-2.7,0-5,2.3-5,5c1.4,39.2,2.5,78.5,2.3,117.7c-0.1,15.9-1.8,33.4,5.9,48
	c3.5,6.6,9.1,12.6,16.6,14.3c8.8,2,18.8,0.6,27.6-0.5c7.8-0.9,15.8-2.3,22.7-6.3c3.3-1.9,6.2-4.5,8.4-7.5c1.6-2.3,3.2-9,5.8-10
	l-6.1-3.5c0.8,5,1.6,10,2.4,15c0.6,3.6,0.8,6.9,4.1,9s8.7,2.3,12.6,3.1l15.5,3.1C619.4,727.8,622,718.2,615.7,716.9z"/>
<path d="M623.2,491.6c-6.7-6-8.7-16.3-10.8-24.7c-2.3-9.5-3.7-19.6-1.6-29.2c1.7-8,5.3-15.6,11.5-21c6.9-5.9,16.1-8.2,24.7-10.3
	c10-2.5,20-5,30-7.5c7.5-1.9,16.6-3.5,20.9-10.8c3.9-6.6,2.5-15.1-2.3-20.8c-5.2-6.2-13.6-8.8-21.6-8.9
	c-17.5-0.2-33.2,11.4-39.4,27.5l7.3-3c-11.2-6.4-23.4-11-36-13.6l3,7.3c8.6-13.6,18.8-30.5,35.9-33.8c10-1.9,20.7-0.5,30.7-0.1
	c9.4,0.3,19,0.2,28.3,1.5c8.7,1.2,17.4,4.1,22.9,11.4c5,6.6,6.6,15.4,7.1,23.5c0.7,9.7,0.2,19-2.9,28.3c-3.2,9.8-6.1,18.8-5,29.3
	c2.4,21.8,18.3,44,10,66.1l6.2-3.5c-9.6-1.4-19.4-2.4-28.9-4.1c-4.5-0.8-6.2-2.2-7.8-6.3c-1.4-3.4-2.7-6.5-5.3-9.3
	c-2-2-5.2-1.9-7.2,0.1c-0.3,0.3-0.5,0.6-0.7,0.9c-5.9,10.6-17.1,16.6-28.9,18.1c-7.2,0.8-14.4,0.5-21.5-0.9
	c-6.8-1.3-14-2.7-19.6-6.8c-5.2-3.9-10.1,4.8-5,8.6c6.7,5,15.7,6.8,23.8,8.2c8.3,1.6,16.9,1.8,25.3,0.6c14.2-2.2,27.5-10,34.6-22.7
	l-7.9,1c2.7,2.8,3.2,7.1,5.2,10.4c2.1,3.5,5.4,6,9.2,7.1c4.6,1.4,9.7,1.6,14.5,2.3l17.6,2.5c2.9,0.4,5.1-0.7,6.2-3.5
	c8.3-22.1-4.8-43.2-9-64.5c-1.3-5.7-1.4-11.7-0.3-17.5c1.2-5.7,3.6-11.1,5.3-16.7c2.9-10.1,3-21,1.9-31.4c-1-8.9-3.2-18-8.6-25.3
	c-5.6-7.7-13.9-12.3-23.1-14.4c-9.7-2.3-19.8-2.3-29.7-2.7c-11.4-0.4-23.1-1.7-34.4-0.5c-23,2.3-36,21.1-47.5,39.2
	c-1.7,2.6-0.1,6.7,3,7.3c11.8,2.4,23.2,6.7,33.7,12.6c3,1.7,6.2,0,7.3-3c5-13,19.7-22.1,33.7-19.8c6.2,1,17.6,8.7,10.2,15.6
	c-2.6,2.4-6.7,3.1-10,4l-14.1,3.5c-15.4,3.9-33.6,6.1-46.5,16.1c-11.6,8.9-17,23.6-17.5,37.9c-0.4,9.9,1.6,19.9,4.3,29.3
	c2.4,8.5,5.1,17.5,11.9,23.6C620.8,502.9,628,495.9,623.2,491.6z"/>
<path d="M847.7,642.3c-0.1,16.5-0.2,33-0.3,49.4c0,3.3,0,6.6-0.1,9.9c0,1-1.1,4.8,0.8,3.3c-0.7,0.6-5,0-5.9,0h-25.7h-15.8
	c-0.9-0.1-1.9-0.1-2.8,0c-0.5-0.7,0.2-4.3,0.2-5.2c0.1-1.8,0.1-3.7,0.2-5.5c0.1-4.3,0.2-8.6,0.2-12.9c0-14.5-1.1-29.1-3.2-43.5
	c-2-14.4-5.6-28.5-10.7-42.1c-2.1-5.3-4.5-10.5-9.1-14.2c-4.8-3.9-10.8-4.8-16.8-5.1c-23.6-1.3-56,2.1-61.1,30.8
	c-1.5,8.2-1.2,16.9-1.4,25.2s-0.2,16.9-0.2,25.4c0.1,18.2,0.8,36.4,2.1,54.6l5-5l-46.1,0.2l5,5c1.5-28.6,2.9-57.4-0.9-85.9
	c-3.4-25.6-11.3-52.6-1.1-77.6l-4.8,3.7c9.4,0,18.8-0.2,28.2-0.4c4.4-0.1,8.8-0.1,13.2-0.2h3.7c-1.1,0.2-1.3,1-0.5,2.2
	c-0.2,2.4,0.7,5.2,1,7.6c0.5,3.7,5.5,7.3,8.5,3.5c10.6-13.1,26.8-18.5,43.2-19.7c17.8-1.4,35.2-0.3,51.1,8.3
	c7.8,4.2,15.3,9,22.7,13.9s15,9.3,17.7,18.4C849.2,604,848,624.2,847.7,642.3c0.1,6.5,10.1,6.5,10.1,0c0.1-16.8,0.1-33.5-2.5-50.1
	c-1.1-7-2.9-13.9-7.4-19.5s-10.7-9.3-16.6-13.2c-12.9-8.5-26.6-18-41.9-21.7c-14.8-3.5-31.5-3.1-46.5-0.8
	c-15.5,2.4-30.7,9.2-40.8,21.5l8.5,3.5c-0.6-5-0.1-12.4-3-16.6s-9.2-3.3-13.8-3.2c-12.9,0.1-25.8,0.5-38.6,0.5c-2.4,0-4,1.6-4.8,3.7
	c-10.2,25.1-3.4,52.2,0.4,77.9c4.3,29.2,2.8,58.9,1.2,88.3c0,2.7,2.3,5,5,5l46.1-0.2c2.6,0,5.2-2.3,5-5c-2.2-31.2-2.8-62.4-1.7-93.7
	c0.3-6.7,0.6-13.6,4.7-19.2c3.4-4.8,8.8-8.3,14.3-10.3c6.7-2.5,13.8-3,20.8-3.1c6.2,0,14.5-0.8,20.3,1.6c6,2.6,8.1,9.8,10,15.5
	c2.4,6.9,4.4,14,5.9,21.1c3.2,14.5,5,29.3,5.5,44.1c0.3,7.4,0.4,14.7,0.2,22.1c-0.1,5.8-2.2,14.3,0.8,19.7c2.8,5.1,8.6,4.7,13.6,4.7
	h25.7h13.8c3,0,6.6,0.5,9.5-0.4c7.6-2.4,5.7-12.7,5.7-18.8c0.1-17.8,0.2-35.6,0.3-53.4C857.8,635.8,847.8,635.8,847.7,642.3z"/>
<path d="M338.6,217.2c6.2,0.3,5.5,6,4.8,10.8c-0.7,4.4-1.3,8.9-2.3,13.3c-0.9,3.6-2.2,7.6-5.3,10c-4,3.3-8.5,1.8-12.6-0.5
	c-3.8-2-7.8-4.8-8.8-9.2c-1-4.3,1.5-8.3,4.1-11.4s5-6.8,8-9.4C329.8,217.7,334.2,217.2,338.6,217.2c6.4,0,6.4-10,0-10
	c-7,0-14,1.5-19.2,6.4c-2.6,2.4-4.6,5.5-6.9,8.2c-2.5,2.7-4.7,5.7-6.3,9c-6.5,14.3,4.6,26.8,17.8,31.2c15.4,5.2,25-8.1,27.5-21.6
	c1.3-7,3.8-15.7,1.8-22.7s-7.6-10.2-14.6-10.5C332.1,207,332.1,217,338.6,217.2z"/>
<path d="M658.5,436.9c10-3.5,19.6-9.5,30.3-10.6c-0.2,0,4.2-0.3,3.5-0.6c0.1-0.9,0-0.6-0.1,1l-0.3,1.5c-0.5,2.4-1.1,4.8-1.9,7.1
	c-1.6,4.4-3.8,8.7-6.5,12.5c-2.7,3.9-6,7.3-9.6,10.3c-2.8,2.3-9.2,7.8-12.8,5.4s-6.4-9.4-7-13.5c-0.7-5.2,1-10.6,5.5-13.6
	c5.3-3.5,0.3-12.2-5-8.6c-14.3,9.5-12.3,28-2.8,40.1c4.8,6.2,11.1,7.9,18.4,4.5c6.6-3.3,12.4-7.8,17.2-13.3
	c4.8-5.4,8.7-11.7,11.3-18.4c2.2-5.4,5.9-14.8,2.6-20.4c-3.9-6.6-14.8-4-20.7-2.5c-8.6,2.3-16.3,6.5-24.7,9.5
	C649.9,429.3,652.5,439,658.5,436.9L658.5,436.9z"/>
</svg>
