<?xml version="1.0" encoding="utf-8"?>
<!-- Generator: Adobe Illustrator 22.0.1, SVG Export Plug-In . SVG Version: 6.00 Build 0)  -->
<svg version="1.1" id="Réteg_2" xmlns="http://www.w3.org/2000/svg" xmlns:xlink="http://www.w3.org/1999/xlink" x="0px" y="0px"
	 viewBox="0 0 960 780" style="enable-background:new 0 0 960 780;" xml:space="preserve">
<title>Rajztábla 1</title>
<path d="M929.1,379.9c-8.9-19.2-20.2-37.3-28.4-56.8c-7.4-17.5-12.3-36.2-22.3-52.3c-8.6-14-20.7-25.5-32.6-36.8
	C805.6,195.6,765,157,718.8,126.2c-67.2-44.9-144.2-72.2-220.4-99C351.8-24.6,143.1,8.7,66.5,95.9C-19.6,198.3-11.8,335.6,49,449.3
	C139,617.5,311.1,728.4,495.3,766c115.9,23.6,240.6,14.1,345.7-40c33.8-17.4,66.4-40.3,85-73.5C970.2,574.1,966.4,460,929.1,379.9z
	 M416.4,88.3c0-8.6,0-17.3,1.5-25.9c0.5-2.8,1.4-5.8,3.8-7.3c1.6-0.7,3.3-1.1,5-1l45-1.1c1.2-0.3,2.4,0.4,2.7,1.5
	c0.1,0.4,0.1,0.7,0,1.1c1.2,26.4,2.7,52.7,4.5,79.1c18-19.3,44.6-28.9,70.9-30.9c18.4-1.4,38.5,1.1,52.2,13.5
	c4.1,3.8,7.7,8.3,10.4,13.2c9.7,17,11.6,37.2,13,56.8c1.9,27.1,3.2,54.3,0.9,81.3c0,1.5-0.4,3-1.2,4.2c-1.3,1.6-3.8,1.8-5.9,1.9
	l-58.4,1.6c-2.2-11.4,0-23.1,1.3-34.6c2.5-21.3,2.1-42.9-1.3-64c-1.5-9.3-4-19.2-11.4-25c-4.2-3.4-9.7-4.9-15-5.6
	c-12.3-1.6-24.8,0.7-35.7,6.5c-6,3.2-11.6,7.6-14.7,13.7c-2.5,4.8-3.3,10.4-3.9,15.8c-3.1,29.4-1.2,59.1-1.1,88.7
	c0.1,0.9-0.1,1.9-0.4,2.7c-0.9,1.8-3.3,2.1-5.3,2.2c-16.7,0.7-33.3,0.8-50,0.5c-5.4-28.8-6.8-60.6-6.7-89.9
	C416.4,154.3,416.4,121.3,416.4,88.3z M338.1,148.5c-5.5-5.1-10.7-7.1-18.3-7.2c-1.1-0.1-2.2,0.1-3.2,0.4c-1.6,0.8-2.9,2.1-3.8,3.7
	c-3.4,5.4-5.9,11.3-7.3,17.5c-9.2-3.2-18.1-7.1-26.7-11.8c-1.9-0.5-3-2.3-2.5-4.2c0.1-0.4,0.3-0.8,0.5-1.1
	c4.4-11.5,10.2-22.9,19.7-30.7c19-15.7,47.1-12.9,62.7,6c0.4,0.5,0.8,1,1.2,1.5c7.2,9.6,10.3,21.7,11.3,33.6s0,24,0.1,35.9
	c0,19.6,2.7,39.1,5.3,58.5c1.3,9.7,2.7,19.7,6.8,28.6c-9.4,0.5-18.8,0.5-28.1-0.1c-1,0-2.1-0.2-2.9-0.8c-0.8-0.8-1.3-1.9-1.5-3
	c-1.2-4.7-2.4-9.3-3.6-14c-8,4.9-12.1,14.8-20.6,18.7c-5.8,2.7-12.6,2-18.8,0.3c-17.1-4.8-32.1-17.7-38-34.4s-1.8-37,11.1-49.2
	c4.6-4.1,9.7-7.5,15.3-10.1c9.4-4.6,19.4-7.8,29.6-9.7c4.8-0.9,10-1.5,13.7-4.8C346.9,166.4,344.7,154.6,338.1,148.5L338.1,148.5z
	 M236.6,48.8c1.8-0.5,3.6,0.6,4.1,2.4c0.1,0.5,0.1,1,0,1.5c2,45.3-3.1,91.1,4.7,135.8c2.8,16.1,7.3,32,8.2,48.3
	c0.7,11.8-0.5,23.6-1.7,35.4c0,1.3-0.3,2.5-1,3.6c-1.2,1.6-3.4,1.8-5.4,1.9c-11.4,0.5-22.8,0.7-34.2,0.4c-1.5,0.1-3-0.2-4.3-1
	c-1.6-1.2-2.1-3.4-2.4-5.4c-5.3-34.1-9.3-68.5-10.3-103c-1.1-39.4,2.6-81.8-3.2-120.7L236.6,48.8z M384,657.3
	c8.4,9.3,24.9,11.8,33.2,2.3c2.4-2.8,3.9-6.2,5.4-9.6l8.1-18.9c0.3-0.8,0.7-1.5,1.4-2c1-0.4,2.1-0.3,3,0.2c7.2,2.5,14.2,5.4,21,8.6
	c2.9,0.7,4.6,3.6,3.9,6.5c-0.4,10.8-1,22-6,31.5c-3.4,6.4-8.5,11.6-13.8,16.5c-11.1,10.3-24.2,20.2-39.4,21
	c-11.6,0.6-23-4.3-31.9-11.8s-15.4-17.4-20.7-27.7c-3.3-6.1-5.8-12.7-7.6-19.4c-2.1-8.6-2.4-17.6-2.6-26.5
	c-0.4-16.6-0.8-33.4,3.3-49.4s13.5-31.5,28.1-39.3c13.2-7,28.9-7,43.8-6c6.6,0.4,13.4,1.1,19.4,4c9.1,4.5,15,13.7,20.1,22.5
	c4,6.9,7.9,13.8,11.8,20.8c-10.9,4.3-24.1,9.3-35,13.5c-1.9-5.7-3.9-11.4-7.3-16.2s-8.8-8.8-14.7-9.2c-10.3-0.7-18.2,8.8-22.8,18
	c-5.4,11-8.8,22.9-9.8,35.1C373.9,634.4,375.6,648,384,657.3z M477,387.4c-1-5.8-2.2-11.7-5.5-16.5c-5.1-7.6-14.5-11.3-23.5-12.6
	c-13.3-1.9-26.9,0.4-38.9,6.5c-5.8,3-11.4,7.1-14.1,13c-1.9,4.2-2.3,9-2.5,13.6c-1.8,32.8-1.1,65.6,2,98.2l-66.4,0.6
	c-3.3-30.3-6.7-60.6-10.1-90.9c-0.9-8.4-1.9-16.9-4.4-25c-1.6-5.1-4-10.4-8.5-13.2c-3.9-2.5-8.7-2.8-13.4-3.1
	c-10.9-0.6-21.9-1.2-32.5,1.4c-10.6,2.6-20.7,9-25.3,18.8c-3.8,8.4-3.2,18-2.4,27.2l6.3,79.1c0.3,1.4,0.1,2.8-0.6,4
	c-1.1,1.6-3.4,1.8-5.3,1.8c-24.3,0.1-47.1-1.9-71.4-1.8c-0.2-52.4-0.4-104.7-0.7-157.1c-0.1-1.1,0.1-2.2,0.7-3.1
	c0.9-1.1,2.5-1.2,3.9-1.2h52.4c1.6,0,3.4,0.1,4.4,1.3c0.7,1.1,1,2.3,0.9,3.6c0.2,4.7,0.3,9.4,0.5,14.1c43.9-38.6,109.4-39.2,154-1.5
	c1.3,1.1,2.6,2.2,4.3,2.4c2.3,0.2,4.2-1.5,6-3c23.8-21,59.1-21.2,90.7-17.9c11.8,1.3,23.6,2.9,35.4,4.8c8.1,1.4,16.6,3,22.9,8.2
	c8.5,6.9,11.3,18.5,12.9,29.3c2.2,15.4,2.7,31,3.2,46.5c0.8,23.1,1.5,46.1,2.3,69.2c0,1.2,0,2.6-0.8,3.5c-0.9,0.7-2,1.1-3.1,1.1
	l-67.8,7.3C485.4,460,483.4,423.4,477,387.4L477,387.4z M607.7,711.8l-25.2-5c-0.8-0.1-1.6-0.4-2.2-1c-0.4-0.6-0.6-1.2-0.7-1.9
	c-1-6.3-2-12.5-3-18.8c-4.1,1.1-5.3,6.2-7.3,10c-4.8,9.1-16.2,12.2-26.4,13.5c-6.7,0.8-13.4,1.3-20.2,1.4c-3.5,0-7.2,0-10.4-1.3
	c-3.3-1.4-6.1-3.7-8.2-6.6c-8.3-10.9-8.3-25.8-8.2-39.4c0.5-42.2-0.7-86.1-2.2-128.3l22.5-1.2c1.9-0.1,4-0.1,5.5,1.1
	c1.9,1.6,1.7,4.5,1.3,7c-4.3,32.2-3.8,64.9,1.6,97c1.2,7.1,2.7,14.4,6.7,20.5s11,10.6,18.2,9.7c6.9-0.9,12.5-6.8,15-13.3
	s2.5-13.7,2.4-20.7c-0.7-32.5-4.5-65.1-2.3-97.5c0.1-1.8,0.7-3.5,1.8-4.9c0.9-1,2.6-0.8,4-0.8l34.8,0.5c1.4,0,2.9,0.1,3.8,1.1
	s1,2.5,1,3.9C609.2,595,608.4,653.4,607.7,711.8z M612.9,485.2c-4.8-3.9-7-10-8.9-15.9c-3.6-11.5-6.5-23.4-5.8-35.4
	s5.6-24.2,14.9-31.7c7.5-6,17.2-8.5,26.5-10.8l33.9-8.5c4.8-1.2,10-2.7,12.8-6.7c3.4-4.7,2.2-11.6-1.6-15.9s-9.7-6.3-15.5-6.8
	c-15.6-1.2-31.4,9-36.7,23.7c-10.8-6.3-22.6-10.7-34.8-13.1c8-12.6,19-29.4,33.1-34.5c8.1-2.9,17-2.6,25.6-2.3l26.4,1
	c13.3,0.5,27.8,1.5,37.6,10.5c9.4,8.8,11.6,22.8,11.9,35.6c0.3,5.9-0.2,11.8-1.4,17.6c-1.7,7.4-5.2,14.3-6.5,21.8
	c-2.3,13.5,2.7,27.1,7,40.1s7.8,27.5,2.6,40.2l-27.4-3.9c-3.2-0.5-6.5-1-8.9-3.1c-4.1-3.6-4-10.4-8-14.1c-5.7,10.7-17.1,17.6-29,20
	s-24.2,0.6-36-2.5C620.6,489.3,616.3,488,612.9,485.2L612.9,485.2z M846,632.3c-0.1,21.1-0.3,42.2-0.4,63.3c0,1.3-0.1,2.7-1,3.6
	c-0.9,0.6-2.1,0.9-3.2,0.8L792,700c-1.6,0-3.3-0.1-4.5-1.1c-1.4-1.3-1.4-3.5-1.3-5.4c1.7-35.5-0.5-71.7-12.7-105
	c-2-5.4-4.5-11.1-9.5-14.2c-4-2.5-9-2.7-13.7-2.9c-10.1-0.4-20.4-0.6-30.2,2.2s-19,9.1-22.7,18.5c-2.1,5.3-2.4,11.1-2.6,16.8
	c-1.2,31.2-0.7,62.5,1.5,93.7l-46.1,0.2c1.5-28.4,3-57-0.8-85.3c-3.5-26.7-11.6-54.8-1-79.6c14.6,0,30.5-0.5,45.1-0.6
	c1.7-0.5,3.5,0.6,3.9,2.3c0.1,0.4,0.1,0.8,0.1,1.2c0.5,3.8,0.9,7.6,1.4,11.4c7.1-9.1,17.7-15,28.8-18.2s22.8-3.6,34.3-3.4
	c7.1,0.2,14.2,0.6,21,2.5c6.2,1.8,12.2,4.4,17.8,7.7c8.4,4.6,16.4,9.9,24.3,15.1c5,3.3,10.1,6.7,13.4,11.6c3.1,4.7,4.4,10.4,5.2,16
	C846.2,599.7,846.1,616,846,632.3z"/>
<path d="M331.8,202.3c1.9-0.1,3.8,0.3,5.5,1.1c2.6,1.4,4.1,4.3,4.6,7.2c0.3,2.9,0.1,5.9-0.5,8.8l-1,6.3c-0.8,4.6-1.5,9.4-3.6,13.6
	s-5.8,7.9-10.3,8.8c-6,1.2-11.8-2.2-16.9-5.6c-3.3-2.3-5.7-5.7-6.8-9.6c-0.7-3.2-0.4-6.6,1-9.5c1.4-3,3.2-5.7,5.5-8
	c3.1-3.2,5.5-7.7,9.3-10.1S327.3,202.2,331.8,202.3z"/>
<path d="M650.5,422.1c7.1-2.4,10.8-5,17.9-7.3c6.2-2.1,12.6-4.1,19-3.5c0.7,0,1.4,0.2,2,0.6c1.4,1,1.4,3,1.2,4.7
	c-2.6,17.3-13,32.4-28.3,40.8c-2.6,1.4-5.7,2.6-8.5,1.6c-1.8-0.8-3.3-2-4.4-3.6c-3.9-4.9-6.8-10.9-7-17.2S645,425.3,650.5,422.1"/>
</svg>
