<svg width="76" height="116" viewBox="0 0 76 116" fill="none" xmlns="http://www.w3.org/2000/svg">
<path d="M3.93344 10.7403C3.86281 41.5993 2.66887 72.5418 2.59803 103.491C2.59451 105.032 1.69557 113.354 3.19858 113.722C7.20226 114.703 10.793 112.838 14.3696 112.846C18.8341 112.857 21.6717 112.08 21.6807 108.146C21.6947 102.036 20.5855 95.9581 20.5992 89.9638C20.6217 80.1039 21.3586 70.3228 21.7895 60.6033C22.2277 50.7218 19.3291 37.5903 23.5481 28.3289C25.4202 24.2192 24.1342 17.5988 24.1443 13.1716C24.1518 9.92044 26.2114 3.03818 20.234 4.15233C16.3434 4.87751 14.4119 5.99405 10.1216 5.98423C4.77832 5.972 6.18423 8.77089 6.17534 12.6535" stroke="black" stroke-width="3" stroke-linecap="round"/>
<path d="M21.2856 21.9898C20.4293 24.1417 19.1453 26.5559 18.9383 28.8691C18.8579 29.7666 19.2918 27.0814 19.2497 26.182C19.148 24.0055 18.3547 16.7938 15.0812 16.2697C11.198 15.648 11.3211 24.0806 11.368 25.6688C11.4033 26.8661 13.3154 34.4282 15.7148 30.465C18.0467 26.6134 17.5613 20.8535 16.4678 16.7916C16.1404 15.5756 13.5304 8.47127 13.3391 13.3657C13.172 17.642 12.5207 22.701 13.8911 26.877C15.3735 31.3945 16.2833 24.6381 16.2862 23.393C16.291 21.2606 16.4948 12.2848 13.3994 11.291C12.6628 11.0545 13.0742 20.713 13.1272 21.0751C13.6126 24.3947 15.3136 29.1137 17.4796 23.4429C18.9585 19.571 19.3228 7.23438 18.7842 11.2797C18.4339 13.9116 18.3014 16.5815 19.9047 18.9686C20.7441 20.2185 23.1484 21.0454 23.9841 19.3081C25.3402 16.4892 24.8328 11.778 23.2025 9.12066C21.224 5.8956 18.5577 8.65812 17.8135 10.9474C17.2749 12.6045 16.844 15.3244 18.3276 16.7487C20.143 18.4915 21.0894 13.0051 21.0853 12.4639C21.0354 5.82228 13.0737 5.42468 9.84777 10.7405C8.7842 12.4932 7.46765 15.5663 8.52766 17.5279C9.49588 19.3197 10.8707 17.1491 11.0285 16.3548C11.2555 15.2114 11.6983 11.511 9.70835 11.0232C7.20913 10.4105 7.30674 17.371 7.30476 18.2325C7.29545 22.3032 8.12243 26.2588 8.72052 30.284C9.16091 33.2479 7.58377 35.3417 7.36992 38.2738C6.88391 44.9375 7.63905 52.0015 8.71122 58.601C9.04328 60.6448 10.0458 66.2167 10.9539 61.0582C11.8821 55.7857 12.1739 50.0961 11.5185 44.7908C11.0171 40.7318 10.2477 42.1759 10.2408 45.1887C10.2329 48.6571 9.58756 52.68 10.7155 56.0591C11.5426 58.5367 14.3912 46.9893 14.5131 46.1651C14.945 43.2446 15.1443 40.3132 15.2272 37.3722C15.2378 36.9945 15.6505 34.2963 15.2354 33.7648C14.936 33.3815 14.8515 34.6308 14.7605 35.0841C14.0013 38.8704 13.9746 42.8088 13.8459 46.6352C13.6881 51.3244 12.5181 57.4866 13.9769 62.1261C15.4659 66.8614 16.7301 52.5657 17.1743 47.6802C17.6263 42.709 17.4434 27.7603 17.8747 32.7335C18.5424 40.433 18.9167 48.1514 19.2096 55.8664C19.2398 56.6632 19.7596 65.8452 20.0863 60.8905C20.6998 51.5862 19.2799 42.387 18.873 33.113C18.8302 32.1361 18.7635 23.851 19.3357 25.0033C22.3891 31.1519 21.503 39.7455 21.5077 46.2283C21.5116 51.5316 22.6557 58.6568 20.9399 63.8632C19.6304 67.8371 20.1945 55.6304 19.9968 51.5063C19.8023 47.4516 19.7531 43.397 19.747 39.3395C19.7448 37.8611 18.7565 32.5555 19.8768 31.1348C20.6267 30.1839 20.2029 33.4104 20.2576 34.5544C20.4799 39.2057 20.6508 43.8585 20.6975 48.5135C20.7476 53.5038 20.7024 58.495 20.691 63.4854C20.681 67.8399 20.7281 54.7744 20.943 50.4239C21.3173 42.8439 21.2391 34.9168 22.5223 27.3919C23.1642 23.6279 22.7619 31.1143 22.7628 31.4714C22.7787 38.1948 23.2316 44.9098 23.2163 51.6315C23.2106 54.093 23.203 57.4311 23.2135 52.834C23.2319 44.8019 22.0649 20.7731 23.2964 28.7376C24.0913 33.8789 23.9703 39.1293 24.2323 44.3012C24.6586 52.7175 25.7901 61.3417 25.0622 69.7671C24.6731 74.2708 24.7019 70.914 24.6491 68.3751C24.5842 65.2541 24.5885 62.0142 24.0878 58.9191C23.5511 55.6016 23.0946 58.9364 22.8629 60.4724C22.2601 64.47 21.5788 72.5988 21.2164 76.5016C21.0668 78.1125 20.9526 79.7263 20.7612 81.334C20.4951 83.5689 20.4262 81.037 20.4018 80.7202C20.1276 77.1712 20.1229 73.613 19.8988 70.0618C19.8275 68.9326 18.5995 61.1314 18.4464 61.877C16.4391 71.6517 19.1002 101.428 17.2403 91.6295C15.9025 84.5819 17.3629 77.1428 16.1795 70.0062C15.9909 68.8691 13.9213 63.3881 13.7147 67.572C13.4565 72.8 13.522 78.0409 13.2624 83.2738C13.1827 84.879 13.1332 91.1951 13.1457 85.7492C13.1598 79.5849 12.8452 73.4968 10.9114 67.5184C10.1726 65.2347 9.07951 63.4532 8.80325 66.9006C8.31369 73.0097 8.86477 79.162 9.12204 85.2684C9.29178 89.2973 9.80449 87.1133 10.1514 84.2569C10.9446 77.7256 10.5218 71.1803 8.75259 64.7784C7.03626 58.5678 7.17988 72.798 7.17773 73.7344C7.16173 80.7291 7.14572 87.7239 7.12971 94.7186C7.1118 102.541 8.03179 79.0811 7.84955 71.2603C7.70163 64.912 6.67572 75.8388 6.67172 76.5154C6.62528 84.3563 6.53547 92.205 6.61786 100.046C6.65109 103.208 7.54345 101.958 8.11782 99.5779C9.43015 94.1388 9.19774 88.4138 9.15525 82.8871C9.12079 78.4045 8.45069 85.1496 8.39876 85.9741C8.10631 90.6178 7.0067 96.5878 8.41952 101.158C9.3341 104.117 11.5207 97.5347 11.6208 97.1338C12.2349 94.6726 14.327 86.9765 12.1209 84.7802C11.3703 84.0328 11.4541 86.6759 11.3649 87.6549C11.0001 91.6568 11.0695 95.7145 11.1152 99.7262C11.1317 101.176 11.6188 108.076 14.1035 103.836C17.1977 98.5552 16.6294 91.6915 16.6425 85.9694C16.6553 80.4055 16.1671 86.8833 16.2482 88.4678C16.4163 91.7497 15.7214 98.7681 18.3556 101.535C18.703 101.9 19.1085 100.794 19.2188 100.334C19.9121 97.4461 20.4487 93.1611 20.7958 90.4587C22.5013 77.1821 20.8397 89.7116 21.7591 81.9022C21.8678 80.9791 21.6904 83.7566 21.6695 84.6841C21.564 89.3515 20.858 94.5489 22.497 99.0921C23.6687 102.34 25.2385 91.1697 25.2922 90.5397C25.8649 83.827 25.6562 77.0611 25.6716 70.3344C25.6812 66.1352 25.8104 78.7361 26.1424 82.926C26.5106 87.573 26.6208 92.1826 26.6101 96.838C26.609 97.3462 27.1199 92.4053 27.1222 91.4163C27.132 87.1264 26.9888 82.5876 25.6531 78.4215C24.1866 73.848 24.1345 87.0222 24.1335 87.472C24.1209 92.9498 24.1084 98.4277 24.0958 103.906C24.087 107.784 23.6036 104.586 23.3494 102.607C23.2027 101.465 21.7649 92.0303 21.6125 97.4396C21.5931 98.1296 22.1864 101.096 21.4918 101.683C19.9287 103.005 18.6019 103.071 18.5964 105.496C18.5906 108.015 14.2136 106.767 11.9316 106.872C7.49644 107.077 9.5101 105.855 12.9352 104.941C15.2605 104.321 17.6563 103.891 20.0989 103.896C21.7358 103.9 16.8333 104.115 15.2127 104.31C14.3549 104.413 5.52372 105.053 8.71692 104.625C9.55395 104.513 10.9879 103.695 11.8273 103.901C13.8886 104.406 9.74102 106.558 9.60061 106.607C3.27293 108.849 13.9648 108.174 15.7035 108.178C17.1691 108.181 12.9787 109.112 11.703 109.725C11.4355 109.853 9.45346 110.922 9.20217 110.898C9.02961 110.881 8.44274 106.422 8.35278 106.062C8.15408 105.267 7.15862 101.131 7.10834 104.055C7.07483 106.005 7.26976 107.999 6.84507 109.926C6.39997 111.945 9.8826 110.778 11.3955 110.667C14.404 110.447 17.8891 110.365 20.5863 109.226C22.3819 108.468 18.6095 110.636 19.4766 108.988C20.8077 106.458 19.4507 99.9994 19.1142 97.5282" stroke="black" stroke-width="3" stroke-linecap="round"/>
<path d="M9.77298 31.3002C9.50888 36.7497 10.4045 53.0856 9.70777 47.6631C9.19226 43.6509 8.76432 39.6107 8.37531 35.5882C8.02569 31.973 8.8652 39.7374 9.00199 40.706C9.31824 42.9452 9.19399 42.7486 9.75161 40.637" stroke="black" stroke-width="3" stroke-linecap="round"/>
<path d="M52.8032 7.20779C51.4688 22.9211 54.2311 38.172 54.1954 53.8008C54.1784 61.2066 55.3889 68.6843 54.2555 76.0584C52.97 84.4212 53.6056 93.2109 53.5862 101.662C53.5796 104.555 53.573 107.447 53.5663 110.339C53.5593 113.407 55.9679 112.466 59.1683 112.474C61.9625 112.48 64.7567 112.487 67.5509 112.493C68.479 112.495 72.7442 112.485 73.3181 112C74.2092 111.247 73.2086 107.252 73.0608 106.328C72.6309 103.641 72.0735 101.12 72.0798 98.4038C72.0921 93.0281 72.1044 87.6524 72.1167 82.2767C72.13 76.4451 72.1434 70.6136 72.1567 64.782C72.1699 58.9954 71.3132 53.2869 71.1968 47.568C70.9748 36.6587 70.7472 25.7378 70.7722 14.7938C70.7796 11.5715 70.787 8.34924 70.7944 5.12696C70.8025 1.58584 68.7716 3.00033 65.4144 2.99264C62.2286 2.98535 58.991 3.12805 55.8106 2.97066C51.7651 2.77046 51.3164 1.91991 51.3064 6.26124C51.3011 8.59634 51.9805 11.2375 53.9 13.0576C54.3014 13.4381 54.3931 11.8312 54.4026 11.7855C54.7551 10.0838 55.1087 8.32316 55.2749 6.60042C55.3891 5.41695 55.1801 4.9814 55.6081 6.53045C56.3924 9.36819 57.2127 12.2009 57.6703 15.0939C57.978 17.0389 57.7933 9.84916 57.7933 9.8835C57.7915 10.657 58.3537 19.1804 59.8886 16.0893C60.8425 14.1682 61.2396 12.0361 61.2904 9.96223C61.342 7.85912 60.8407 12.4021 60.8399 12.767C60.8355 14.7107 61.2245 17.8714 63.2401 19.162C65.2107 20.4238 66.4161 15.2607 66.5537 14.5484C66.6192 14.2095 66.9726 9.78088 66.6709 11.8608C66.3391 14.1488 65.9648 16.5016 67.2938 18.629C69.707 22.4921 71.3228 12.3148 70.671 10.5024C70.5288 10.1069 69.9995 17.5654 70.9962 13.9691C71.7647 11.196 70.2089 5.97169 66.6871 4.78746C64.1749 3.9427 62.3497 7.98486 62.3463 9.4931C62.3462 9.53563 67.9586 6.13498 65.1902 3.93523C64.0243 3.00881 54.0033 3.70054 53.4469 4.87505C53.3261 5.12996 56.605 5.09449 56.694 5.09469C59.0196 5.10001 61.364 5.18132 63.6886 5.1107C64.3672 5.09008 58.7207 3.79045 58.3866 5.33433C57.9386 7.40419 65.1031 10.963 66.5581 12.6622C67.2212 13.4366 66.3184 21.8235 66.5316 24.2388C66.5552 24.5067 67.4137 30.1106 67.9909 29.4057C69.4372 27.6393 69.2307 24.504 69.2558 22.4767C69.2658 21.6636 69.9955 16.9963 69.1585 16.4406C68.6212 16.0838 68.6298 17.5186 68.5164 18.0895C67.9812 20.7844 67.7614 23.546 67.5262 26.2688C67.2891 29.0129 66.4657 37.1881 67.2575 34.5204C68.6587 29.7992 67.6358 23.8683 66.7652 19.1701C66.1766 15.9937 65.3094 14.6698 64.7682 18.5525C64.0654 23.5931 64.2453 28.6932 64.2337 33.759C64.2239 38.061 64.3485 35.3236 64.1247 32.8628C63.6822 27.9967 63.7347 20.1325 60.3886 15.9018C59.2855 14.5071 58.5348 18.6889 58.4942 18.9626C57.6754 24.479 58.4281 30.3396 59.4549 35.7993C60.1592 39.5441 60.2904 36.3317 60.1791 34.6693C59.8368 29.5559 58.1874 24.2356 55.9949 19.4756C54.6629 16.5837 54.4368 20.9271 54.3794 21.924C54.0968 26.8295 55.5368 31.6875 56.4555 36.4998C57.3894 41.3917 57.212 34.136 57.1297 33.0118C56.7126 27.3181 56.0106 20.9552 53.7556 15.5329C51.6295 10.4208 52.0587 23.429 52.0712 23.8285C52.2238 28.6961 52.7186 33.5245 53.6201 38.3324C53.9595 40.1423 55.1752 32.8268 55.2436 32.3945C56.0452 27.3332 57.2629 21.2482 56.0025 16.1511C53.4169 5.69526 55.1424 37.5829 56.5953 48.1947C56.8456 50.0228 57.2224 50.8022 58.2044 48.5285C60.0373 44.2849 60.2229 39.8008 60.2331 35.3296C60.2343 34.8256 60.3396 33.3504 60.1256 33.8203C59.3909 35.4331 59.4028 38.1351 59.3072 39.6893C59.243 40.7333 60.0201 55.2555 60.9105 54.7121C63.5146 53.1227 64.1751 48.577 64.5939 46.1853C64.982 43.9688 66.7759 35.8183 64.2329 34.1127C63.8484 33.8548 62.7956 44.9389 62.8185 45.7097C62.8439 46.5632 65.4662 61.6526 67.1712 60.1022C68.9092 58.5217 68.9009 54.0898 69.1042 52.3023C69.4953 48.8652 69.6812 45.4061 69.7108 41.9531C69.7162 41.333 68.9054 34.6768 67.7758 38.4827C66.6731 42.1981 67.1056 46.5359 67.2491 50.3176C67.278 51.0792 67.2391 59.6935 68.7813 60.0116C70.1282 60.2894 72.9908 40.3419 70.1922 37.8045C69.0445 36.7639 67.5633 47.9966 67.5305 48.6206C67.1344 56.1605 67.9823 63.5865 69.1446 71.0468C69.2651 71.82 69.6338 75.6217 69.6406 72.6513C69.6523 67.5489 68.9771 62.7485 67.454 57.7922C66.0588 53.2518 64.8973 54.379 64.4547 58.4927C63.6189 66.2605 63.8163 74.0243 64.5124 81.7877C64.6538 83.3645 65.3014 85.7764 64.8997 82.3545C64.022 74.8782 62.912 67.0379 59.7604 59.9673C59.608 59.6254 57.8912 55.6904 57.4351 57.227C55.8418 62.5953 56.9044 68.7333 57.5352 74.1325C57.7672 76.1185 58.0675 78.0956 58.3543 80.076C58.446 80.7096 58.3391 82.5035 58.7386 81.9631C61.3403 78.4439 59.0986 70.212 58.5517 66.5664C58.3344 65.1174 56.9288 52.4882 54.4768 52.1038C53.8355 52.0033 53.6633 67.9822 53.6595 69.6439C53.6539 72.0968 52.505 79.1637 53.8647 77.0006C54.9305 75.3052 54.7225 71.7559 54.8522 70.0238C55.1525 66.0122 55.1858 62.0122 54.9075 57.9993C54.5072 52.228 53.2126 46.6198 53.2258 40.8307C53.2311 38.5424 52.9309 36.4329 52.5194 34.1566C52.2311 32.5616 52.5177 27.7284 52.2252 29.3225C51.6242 32.5979 51.7221 35.9197 51.7306 39.224C51.7571 49.522 54.1819 59.7027 54.1585 69.9279C54.1553 71.3272 54.1597 69.4043 54.1605 69.032C54.1641 67.4456 54.1519 72.1473 54.1532 72.2386C54.2676 80.5733 57.9408 88.535 59.0654 96.7943C59.59 100.646 60.1769 89.0206 59.6195 85.1717C59.3631 83.4018 58.8294 88.6779 58.6081 90.4508C57.9818 95.4689 57.1881 100.815 57.6013 105.868C57.8842 109.328 59.9586 99.1985 60.4834 95.7601C61.0734 91.8947 61.9261 86.9751 61.0121 83.0529C59.7145 77.4845 58.6166 94.4686 59.8352 100.05C60.5899 103.506 62.2246 100.032 62.8367 98.4063C65.355 91.7187 65.6166 84.4184 65.6326 77.452C65.6341 76.7779 65.2921 72.9761 65.0255 75.8944C64.7552 78.854 64.6181 81.8398 64.8108 84.8064C64.8162 84.8898 66.6969 96.3459 67.6801 92.405C69.0061 87.0906 68.1225 81.0168 68.135 75.595C68.1484 69.7162 68.1184 81.6301 68.1196 82.3147C68.1291 88.0105 68.3838 93.6942 68.5801 99.3861C68.6232 100.635 69.787 94.6799 69.8412 94.1547C70.5406 87.3783 70.737 80.5388 70.6096 73.738C70.5808 72.2046 70.1588 64.5272 70.1454 70.3889C70.1244 79.5539 70.5611 107.047 70.5821 97.8817C70.5975 91.1565 69.3287 71.0199 69.1293 77.7429C68.8442 87.3515 69.0413 116.19 69.0633 106.578C69.0727 102.458 68.1988 90.2166 67.4815 94.2908C67.0283 96.8649 66.9615 99.5238 67.186 102.118C67.2123 102.422 67.7317 106.79 67.5413 104.547C67.1482 99.9161 66.0789 103.205 65.1868 102.443C64.5945 101.938 64.9577 99.7304 64.5809 100.367C63.8049 101.679 64.8247 105.117 65.0664 106.522C65.2541 107.613 65.5648 103.817 65.5454 103.411C65.4313 101.023 63.063 98.7376 62.6884 102.579C62.5863 103.626 62.0088 107.685 63.1743 108.569C63.275 108.646 63.1202 102.956 62.994 102.462C62.8098 101.741 61.0135 94.966 59.3732 95.7576C56.9782 96.9133 58.0019 103.43 58.1853 105.398C58.2083 105.645 59.0247 110.195 59.452 109.834C60.8663 108.638 58.8368 102.01 58.5292 100.66C58.0097 98.3805 57.3209 93.7099 55.3572 91.9052C54.6136 91.2218 53.5947 100.166 53.5879 100.908C53.5615 103.811 52.6873 108.045 53.9539 110.811C55.185 113.5 55.0217 105.092 55.0283 102.208C55.0323 100.459 55.6774 95.6826 54.3186 96.9957C52.8463 98.4183 52.966 103.004 53.1905 104.774C53.4505 106.823 54.9019 109.493 57.5653 109.499C62.0879 109.51 66.8891 109.206 71.3347 108.635M71.3347 108.635C72.5838 108.475 70.1033 108.831 71.3347 108.635ZM71.3347 108.635C72.1232 108.509 71.6588 109.499 71.6588 109.499C70.0293 109.803 68.8754 110.951 69.7755 110.706C73.0608 110.706 72.1273 97.759 71.1452 94.3935C70.6004 92.5267 70.2562 91.984 70.1187 94.1789C69.9588 96.7304 70.0177 99.3326 70.0733 101.889C70.2039 107.901 71.3806 89.8035 70.3644 83.8524C69.625 79.5229 68.6751 92.5133 68.5858 96.8869C68.5318 99.5336 68.5985 95.4061 68.5904 94.9063C68.4861 88.4866 66.8537 82.0678 65.3588 75.8009C64.2619 71.2023 62.6242 66.6179 61.9486 61.9529C61.5362 59.1053 61.8196 56.2474 61.5796 53.3933C61.5335 52.8442 61.1781 48.7591 60.807 51.411C60.4207 54.1715 61.1592 58.023 59.9811 60.5809C59.6912 61.2102 56.6721 63.1604 56.6731 62.7189C56.6812 59.1644 56.7072 55.6128 56.4754 52.0612C55.9108 43.4117 53.0355 35.5619 51.5084 27.1517C50.5802 22.0395 51.1583 16.9936 50.7663 11.8479C50.5353 8.81596 51.4869 5.96401 50.7867 2.95921" stroke="black" stroke-width="3" stroke-linecap="round"/>
<path d="M21.8231 5.43931C16.3222 4.77072 12.3011 4.99313 7.08526 4.98119C4.29952 4.97481 7.12703 4.15684 8.44728 4.13549C10.4119 4.1037 12.1614 4.56839 14.0809 4.57278C16.0432 4.57727 18.1207 3.73323 20.3281 3.73828C22.0749 3.74228 22.6283 3.98428 20.3281 3.76186C18.4081 3.57622 16.3774 3.72924 14.4437 3.72482C12.1584 3.71958 9.8731 3.71435 7.5878 3.70912C4.04535 3.70102 5.83512 5.45082 5.82989 7.73691C5.81702 13.3588 6.27165 18.6124 7.79098 24.0809" stroke="black" stroke-width="3" stroke-linecap="round"/>
<path d="M23.6117 97.114C23.7729 98.959 25.7317 109.056 23.6905 111.214C23.0286 111.913 16.0475 111.951 14.0849 111.946" stroke="black" stroke-width="3" stroke-linecap="round"/>
<path d="M73.5518 109.536C72.6777 98.6521 72.6021 87.8715 72.6271 76.9493C72.6456 68.8631 71.1649 60.9493 71.1833 52.8966C71.2035 44.0471 71.2238 35.1976 71.244 26.3481C71.2626 18.2519 69.7822 10.1791 69.8005 2.15393" stroke="black" stroke-width="3" stroke-linecap="round"/>
</svg>
