<?xml version="1.0" encoding="utf-8"?>
<!-- Generator: Adobe Illustrator 22.0.1, SVG Export Plug-In . SVG Version: 6.00 Build 0)  -->
<svg version="1.1" id="Layer_1" xmlns="http://www.w3.org/2000/svg" xmlns:xlink="http://www.w3.org/1999/xlink" x="0px" y="0px"
	 viewBox="0 0 88.5 116.3" style="enable-background:new 0 0 88.5 116.3;" xml:space="preserve">
<g>
	<path d="M3.8,7.7C3.7,7.5,3.6,7.4,3.6,7.4C2.7,7.1,1.7,6.9,1.7,5.7c0-1.1,1-1.3,1.8-1.7c0.3-0.1,0.7-0.5,0.7-0.8
		c0.1-1,0.4-1.8,1.5-1.8c1.1,0,1.4,0.8,1.4,1.8c0,0.1,0,0.1,0.1,0.4c2.1-0.2,4.2-0.5,6.4-0.8c0.3,0,0.5-0.2,0.8-0.2
		c3.9-0.2,7.9-0.4,11.8-0.5c3.5,0,6.9,0.3,10.4,0.5c1.2,0.1,3,2,3,3.3c0,3.2,0.1,6.5,0,9.7c-0.1,3.5-0.2,7.1-0.5,10.6
		c-0.2,3.5-0.6,7.1-0.9,10.6c0,0.1,0,0.2,0,0.4c-0.1,9.3-0.2,18.5-0.2,27.8c0,3.9,0.2,7.9,0.7,11.7c0.7,4.6,0.7,9.3,0.6,13.9
		c0,3.2-0.2,6.3-0.5,9.5c-0.3,3.7-0.8,7.4-1.2,11.1c-0.1,0.9-0.5,1.5-1.5,1.5c-0.7,0-1.1,0.5-1.6,0.7c-1.3,0.6-2.8,1-4.2,1.2
		c-1.4,0.3-2.9,0.2-4.4,0.3c0,0.5-0.1,0.9-0.1,1.5c-0.9,0-1.8,0-2.6,0c-0.2-0.5-0.4-1-0.6-1.5c-0.1,0-0.2,0.1-0.3,0.1
		c0.1,0.4,0.2,0.9,0.3,1.5c-0.8,0-1.6,0.1-2.3,0c-0.3,0-0.7-0.4-0.8-0.7c-0.2-1-0.8-1.1-1.7-1.1c-2.5,0.1-5,0.1-7.5,0.3
		c-1.5,0.1-2.2-0.3-2.4-2.4c-0.1-1.4,0.2-2.9,0.2-4.4c0-2.8-0.3-5.5-1.2-8.1c-0.1-0.4-0.2-0.8-0.2-1.3c0.1-2.5,0.1-5.1,0.3-7.6
		c0.2-2-0.5-3.6-1.5-5.2c-0.5-0.8-0.8-1.8-0.9-2.7c-0.1-3.7-0.1-7.4,0-11C4.6,67,4.8,61.8,4.7,56.7c0-5.2-0.3-10.3-0.5-15.5
		c-0.1-3.5-0.2-7-0.2-10.5c-0.1-3.1-0.2-6.3-0.2-9.4c-0.1-3.6-0.2-7.2-0.2-10.7C3.6,9.5,3.8,8.6,3.8,7.7z M8.5,11.1
		c0,1.1-0.1,2.1-0.1,3.2c0,0.6,0.2,1.2,1.2,0.9C9.2,13.8,8.8,12.5,8.5,11.1c-0.4-1.5-0.7-3-1-4.5C7.2,7.3,7.2,8,7.1,8.7
		C7,9.8,7.4,10.6,8.5,11.1z M7.1,26.1c-0.1,0-0.1,0-0.2,0c0,0.4,0,0.7,0,1.1C7.4,31.1,8,35,8.3,38.9c0.3,3.8,0.4,7.6,0.5,11.4
		c0.1,1.6,0.1,3.2,0.2,4.9c0.1,0.8,0,1.7,0.3,2.5c1,2.9,1.1,5.9,1.3,8.8c0.2,3.1,0.3,6.2,0.3,9.3c0,3.5,0.1,7.1-0.6,10.5
		c-0.5,2.6,0.4,4.8,0.2,7.2c0.3-4.2,0.4-8.3,0.6-12.5c0.1-1.8,0.1-3.6,0.3-5.3c0.2-3,0.8-6,0.2-8.9c-0.6-2.7-0.2-5.3-0.4-7.9
		c0-0.2,0-0.4,0-0.6c0-0.2,0-0.4,0.1-0.6c0.9-1,0.6-2.2,0.6-3.3c0-1.8-0.1-3.6,0-5.4c0.2-2.8-0.4-5.4-1.3-8
		c-0.9-2.3-1.7-4.6-2.2-6.9C7.8,31.4,7.5,28.8,7.1,26.1z M28.9,41.7c1.6-3.2,2.2-22.9,1.9-26.5c-0.7-0.3-1.1,0-1.2,0.7
		c-0.4,2.1-0.9,4.2-1.3,6.3c-0.2,1.3-0.9,2.7,0.2,4c0.1,0.2,0,0.5,0,0.8c0.1,4.6,0.2,9.2,0.2,13.9C28.8,41,28.8,41.2,28.9,41.7z
		 M31.8,69.3c0.1,0,0.2,0,0.3,0c0.1-1.8,0.2-3.7,0.3-5.5c0.1-1.1,0.2-2.3,0.3-3.4c0.3-2.4,0.6-4.7,0.9-7.1c0.2-1.4,0.2-2.8,0.3-4.3
		c0.3-3.4,0.9-6.8,0.9-10.2c0-5.1-0.4-10.2-0.7-15.3c0,0-0.1-0.1-0.1-0.1c-0.1,1.6-0.2,3.2-0.3,4.9c-0.2,2.8-0.3,5.7-0.5,8.5
		c-0.2,4-0.6,7.9-0.7,11.9c-0.2,5.1-0.2,10.2-0.3,15.3C32.1,65.6,31.9,67.5,31.8,69.3z M22.7,85.3c-0.6-5.1-1.2-10-1.7-14.9
		c-0.1,0-0.3,0-0.4,0c-0.1,0.3-0.2,0.7-0.2,1c-0.3,3.4-0.4,6.8-0.8,10.2c-0.3,2.6-1,5.2-1.5,7.8c-0.1,0.7-0.1,1.4-0.2,2.1
		c0.1,0,0.2,0,0.3,0.1c0.7-1.5,1.6-2.9,2.2-4.5C20.8,86,21.3,85.3,22.7,85.3z M23.3,61.1c-0.7,3,0.8,12.4,2.6,16.2
		c0.3-5.7,0.5-11.4,0.7-17.1C25.6,62.1,24.6,62.4,23.3,61.1z M36.1,97.1c0.1-2.3,0.3-4.5,0.3-6.8c0-4.5,0.1-9-0.7-13.4
		c-0.3-2-0.2-4-0.3-6.1c-0.1-1.5-0.2-2.9-0.3-4.4C34.4,76.7,34.6,87,36.1,97.1z M18.7,111.6c-0.2-1.3-0.3-2.3-0.5-3.3
		c-0.1-0.5-0.1-1.3-1-1.3c-0.9-0.1-3.3,1.3-3.5,2.3c-0.1,0.6-0.3,1.2-0.6,2C14.9,111.4,16.8,111.5,18.7,111.6z M18.2,18.4
		c0.5,3.1,1,6.1,1.4,8.9c0.7-2.2,1.4-4.5,2.1-6.8c0.2-0.6,0.3-1.3,0.4-2.1C20.7,18.4,19.5,18.4,18.2,18.4z M11.4,34.7
		c0.2,0,0.3,0,0.5,0c-0.5-5.5-1-11-1.5-16.5c-0.7,0-1.1,0-1.6,0C9.7,23.8,10.5,29.3,11.4,34.7z M29.4,56.1c0-2.2,0-4.6,0-7.1
		c-0.6,0.2-1.1,0.3-1.6,0.5c-0.3,2.5-0.7,4.9-1,7.1C27.7,56.4,28.5,56.3,29.4,56.1z M21.1,92.6c-0.1,0-0.1,0-0.2-0.1
		c-0.4,0.8-0.8,1.7-1.3,2.3c-0.6,0.7-0.8,1.3-0.7,2.2c0.3,1.4,0.5,2.9,0.8,4.3c0.6,0,1,0,1.4,0C21.1,98.4,21.1,95.5,21.1,92.6z
		 M25.9,110.7c2.3-0.2,4.6-0.4,6.8-0.6c0-0.6,0-1.1,0-1.7c-2.3,0-4.5,0-6.8,0C25.9,109,25.9,109.7,25.9,110.7z M13.8,13.5
		c0.1-1.5,0-2.9-1.1-4.2c-0.7-0.7-1-1.8-1.6-2.8c-0.1,0-0.4,0-0.7,0C11,9,11.6,11.5,12.2,14C12.8,13.8,13.3,13.7,13.8,13.5z
		 M13.2,105.3c1.1-0.5,2-1.2,2.9-1.4c0.9-0.2,0.9-0.7,0.8-1.3c-0.2-1.4-0.5-2.8-0.8-4.5C14.5,100.4,14.3,102.9,13.2,105.3z M21.9,54
		c1.4-3.8,0.6-7.6,0.9-11.6C21.2,45.6,21.1,46.8,21.9,54z M7.4,84.3c0.2,0,0.3,0,0.5,0c0-6,0-12,0-18.1C7.3,72.3,7.3,78.3,7.4,84.3z
		 M33,105.2c0-1.2,0-2.1,0-2.9c-1.1-0.3-2.2-0.5-3.3-0.8c0,1.1,0,2,0,3.1C30.7,104.7,31.8,104.9,33,105.2z M27.9,10.4
		c0.2-0.6,0.4-1.2,0.6-1.8c-2.2,0.2-4.4,0.4-6.5,0.6c0,0.1,0,0.2,0,0.3C23.9,9.9,25.9,10.1,27.9,10.4z M17.4,11.2
		c-0.1,0.7-0.2,1.3-0.3,1.9c0.5,0,0.9,0,1.4,0c0.2,0,0.5,0,0.7,0c1-0.1,2-0.2,3-0.4c-0.8-0.4-1.6-0.6-2.3-0.8
		C19.1,11.7,18.4,11.5,17.4,11.2z M21.6,111.3c1.6-0.1,1.8-0.6,1.3-3.3c-0.6-0.1-1.1-0.2-1.9-0.3C21.2,108.9,21.4,110.1,21.6,111.3z
		 M27.6,94.3c-0.5,2.2-1,4.3-1.5,6.6c1.3-0.9,0.7-3,2.6-3.1C28.3,96.7,27.9,95.6,27.6,94.3z M32.8,8.2c-1.5-0.1-1.1-0.2-1.9,2.7
		c0.6,0,1.3,0,1.9,0C32.8,10,32.8,9.1,32.8,8.2z M36.6,12.8c0-2.1,0-3.7,0-5.5c-1.6,1.3-0.7,2.9-0.9,4.4
		C35.7,11.9,36.2,12.2,36.6,12.8z M25.5,15.6c0,1.9,0,3.6,0,5.4c0.3-0.9,0.5-1.9,0.7-2.8c0.2-0.9,0.4-1.9,0.6-2.9
		C26.2,15.4,25.8,15.5,25.5,15.6z M36.2,18.8c0.1,0,0.1,0,0.2,0c0.1-1.3,0.2-2.6,0.2-4c-0.1,0-0.3,0-0.4,0
		C36.2,16.2,36.2,17.5,36.2,18.8z"/>
	<path d="M53.7,14.2c-1.1,0-1.8-0.4-1.9-1.4c-0.1-1.2,0.9-1.6,1.9-1.9c0-1.7,0-3.5,0-5.2c0-1.3,0.5-1.9,1.8-2.1
		c0.7-0.1,1.5-0.2,2.3-0.3c0.2-1.2-0.4-3.1,1.6-3c1.8,0.1,1.3,1.8,1.4,3c0.7-0.1,1.4-0.2,2.1-0.2c4.1,0,8.2,0,12.4,0
		c1.6,0,3.2-0.2,4.8,0.1C80.7,3.3,81.8,4,82,4.7c0.7,1.9,1.2,4,1.4,6c0.3,3.2,0.1,6.5,0.3,9.8c0.1,1.7,0.5,3.4,0.8,5.1
		c0,0.3,0.1,0.5,0.1,0.8c0.1,6.4,0.1,12.8,0.3,19.1c0.1,3.3,0.3,6.5,0.5,9.7c0.1,2.6,0.4,5.3,0.5,7.9C86,69.2,86,75.1,86.1,81
		c0.1,5.5,0.4,11.1,0.4,16.6c0,4.4-0.3,8.9-0.5,13.3c0,0.9-0.2,1.9-0.2,2.8c-0.1,1-0.6,1.5-1.6,1.6c-4.4,0.4-8.8,0.9-13.3,1.1
		c-1.9,0.1-3.8-0.2-5.6-0.5c-1-0.1-2.1-0.4-3.1-0.6c-0.4-0.1-0.9-0.1-1.2-0.3c-1.3-1.1-3-0.8-4.5-1.1c-1-0.2-1.5-0.6-1.6-1.6
		c-0.1-0.6-0.5-1.1-0.6-1.6c-0.1-0.6-0.3-1.5,0-1.8c0.8-0.7,0.5-1.4,0.5-2.1c0-2.7,0.1-5.5,0-8.2c-0.1-2.7-0.2-5.4-0.4-8.1
		c0-0.2-0.1-0.4-0.1-0.6c-0.2-6.7-0.3-13.5-0.5-20.2c0-1.2,0.3-2.5,0.2-3.7c-0.2-3.2,0.1-6.5-0.8-9.5c-1.5-4.9-0.6-9.9-0.8-14.8
		c-0.1-2.6,0.4-5.3,0.6-7.9c0-0.3,0-0.6,0-1c0-4.6,0-9.3,0-13.9C53.3,17.5,53.6,15.9,53.7,14.2z M69,49.5c0.6-0.3,1.3-0.8,1.9-0.7
		c0.6,0.1,1,0.9,1.5,1.4c0.1,0,0.2,0,0.3,0c-0.3-2.2-0.7-4.3-1-6.5c-0.1,0-0.3,0-0.4,0C70.4,45.6,69.7,47.5,69,49.5
		c-0.4,2.6-1.3,5.1-1,7.9c0.3-1.3,0.7-2.4,0.8-3.5C68.9,52.4,68.9,50.9,69,49.5z M76.6,99c0.1,0,0.2,0,0.4,0c0-1.4,0.1-2.7,0-4.1
		c-0.1-2.2-0.3-4.4-0.5-6.6c0-0.5-0.3-1-0.2-1.4c0.3-1.3,1.7-1.4,3.1-0.2c-0.6-3.8-1.2-7.5-1.8-11c-0.6,0.2-1.2,0.5-1.8,0.4
		c-0.4-0.1-0.9-0.7-1-1.1c-0.3-1.9-0.6-3.7-0.7-5.6c-0.2-4.2-0.3-8.5-0.5-12.7c0-0.5,0-1,0-1.5c0,0-0.1,0-0.1,0c0,9.9,0,19.7,0,29.4
		c0.6,0.4,1.3,0.6,1.5,1.1c0.5,0.8,0.8,1.8,0.9,2.7c0.2,1.4,0.2,2.8,0.3,4.1C76.4,94.7,76.5,96.9,76.6,99z M80.7,20.8
		c-0.4,2.7-0.7,5.4-1.1,8c-0.3,1.9-0.6,3.7-1,5.5c-0.6,3.3-1.5,6.6-2,9.9c-0.4,2.6-0.4,5.2-0.6,7.9c0.1,0,0.2,0,0.3,0
		c0.3-3.4,0.5-3.6,3-2.9c0-1.7,0-3.3,0-4.9c0-2.1,0.1-4.3,0.3-6.4c0-0.5,0.3-1.2,0.7-1.5c0.4-0.4,1.1-0.4,1.8-0.6
		C81.4,30.9,82.4,25.7,80.7,20.8z M66.4,96.3c-0.6,0.7-1.1,1.2-1.6,1.7c-0.1,0.1-0.3,0.3-0.3,0.4c0.1,1.3-0.4,2.6,0.9,3.7
		c0.5-0.7,1.1-1.3,1.5-2.1c1-1.7,1.9-3.5,2.7-5.3c0.4-0.8,0.7-1.8,0.5-2.6c-0.9-3.3-2-6.5-3-9.7c-0.2-0.8-0.6-0.8-1.2-0.7
		c0,2.6,0,5.2,0,7.7c0,0.2,0.1,0.4,0.2,0.7c0.6,1.4,1.2,2.7,1.7,4.1C68.4,95.7,67.6,96.6,66.4,96.3z M76.7,25.6c0.2,0,0.3,0,0.5,0.1
		c0.2-1.7,0.2-3.4,0.5-5c0.6-2.8,0.3-5.5-0.1-8.2c-0.1-0.9-0.7-2-1.4-2.5c-1.5-0.9-3.2-1.3-4.9-2c0.7,1.1,1.3,2,1.9,3
		c1.5-0.5,2.4,0,2.5,1.2C76.1,16.6,76.4,21.1,76.7,25.6z M70.6,60.9c-0.1,0-0.3,0-0.4,0C70,63,70,65.1,69.8,67.2
		c-0.1,1.5-0.4,2.9-0.7,4.4c-0.3,1.7-0.9,3.5-0.7,5.2c0.3,2.4,1.4,4.6,2.1,7.1C70.6,76.1,70.6,68.5,70.6,60.9z M63.2,44.6
		c-0.1,0-0.2,0-0.3-0.1c-0.5,1.9-0.8,3.8-1.6,5.5c-1.1,2.5-1.9,4.9-1.3,7.4c0.8,0.2,1.4,0.4,2,0.6C64,53.7,62.6,49.1,63.2,44.6z
		 M72,96.6c-0.8,2.7-2.5,4.9-4.1,7.2c-0.1,0.2-0.2,0.5-0.2,0.7c0.6,2,2,2.9,4.3,2.6C72,103.6,72,100.1,72,96.6z M57.7,97.1
		c0,3.9,0,7.5,0,11c0.8,0,1.3,0,1.9,0c0-0.2,0-0.4,0-0.6c0-2.4,0.1-4.7,0.1-7.1c0-0.1-0.1-0.3-0.2-0.4
		C59.1,99.2,58.5,98.3,57.7,97.1z M81,60.7c-1.7,6.2-1.1,11.9,1,17.8C81.7,72.5,81.3,66.8,81,60.7z M59.5,35.2c0.1,0,0.2,0,0.3,0
		c0.3-1.5,0.5-3.1,0.8-4.6c0.3-1.5,0.6-3.1,0.8-4.6c0.2-1.5,0.4-3,0.6-4.5c-0.1,0-0.2-0.1-0.3-0.1c-0.6,1.1-1.5,2.2-1.6,3.4
		C59.8,28.3,59.7,31.7,59.5,35.2z M56.7,70.1c0.2,6.7,0.4,13.4,0.6,20.1c0.2-1.9,0.5-3.9,0.5-5.8C57.7,79.6,58.2,74.8,56.7,70.1z
		 M83.2,101.2c-0.2,0.3-0.6,0.7-0.7,1.1c-0.2,2.2-0.2,4.4-0.3,6.5c-0.1,1.2-0.3,2.4-0.4,3.6c0.2,0,0.6-0.1,1.3-0.1
		C83.2,108.6,83.2,104.9,83.2,101.2z M71,22.2c-0.7,2.9-1.9,5.5-0.5,8.5C71,27.8,72.4,25.3,71,22.2z M61,10.9c0,0.1,0,0.2,0.1,0.3
		c1.3,0,2.7,0.4,3.8-0.1c1.3-0.6,2.4-1,3.9,0c-0.2-0.9-0.3-1.4-0.4-2C65.5,8.8,63.4,10.3,61,10.9z M80.7,11.7
		c-0.3-1.6-0.6-3.2-0.9-4.8c0-0.2-0.3-0.6-0.5-0.6c-1.4-0.1-2.8,0-4.6,0C77.9,7,79.7,8.8,80.7,11.7z M60,14.1
		c-0.1,1.7-0.2,3.3-0.3,4.8c0.1,0,0.3,0.1,0.4,0.1c0.8-1.6,1.5-3.2,2.3-4.9C61.4,14.1,60.8,14.1,60,14.1z M61.2,111.1
		c0,0.2-0.1,0.4-0.1,0.6c3,0.2,6,0.3,9,0.5c0-0.1,0.1-0.3,0.1-0.4c-0.4-0.2-0.9-0.6-1.3-0.7C66.3,111,63.7,111.1,61.2,111.1z
		 M65.7,14.8c-1.1,2.2,0.2,4.4-0.3,6.7C66.4,20.6,66.4,16,65.7,14.8z M60.5,8c1.2-0.4,2.4-0.7,3.5-1c-1-1.8-2.3-0.6-3.5-0.7
		C60.5,6.9,60.5,7.5,60.5,8z M68.4,34.2c-0.1,2.2-0.2,4.2-0.3,6.3C68.5,38.4,70,36.4,68.4,34.2z"/>
</g>
</svg>
