<?xml version="1.0" encoding="utf-8"?>
<!-- Generator: Adobe Illustrator 22.0.1, SVG Export Plug-In . SVG Version: 6.00 Build 0)  -->
<svg version="1.1" id="Layer_1" xmlns="http://www.w3.org/2000/svg" xmlns:xlink="http://www.w3.org/1999/xlink" x="0px" y="0px"
	 viewBox="0 0 82 123.7" style="enable-background:new 0 0 82 123.7;" xml:space="preserve">
<style type="text/css">
	.st0{fill:none;stroke:#000000;stroke-width:3;stroke-linecap:round;}
</style>
<path class="st0" d="M72.5,4.2c-0.9,4.2-0.9,5.9-3.5,8.5c-0.8,0.8-1.6,1.8-2.4,2.6c-0.2,0.2,0.9,6.4,0.9,7.4c0,4.9-0.7,10.6-2.9,15
	c-2.6,5.3-6.9,11.8-12.1,14.9c-4.6,2.7-2,7.8,1.2,10.4c4.4,3.4,9.3,5.4,12.2,10.5c3.2,5.6,6.5,11.8,6.5,18.5c0,3,0,6,0,9
	c0,2.3-1.6,5.9-1,8c0.4,1.2,4.3,1.9,5.2,3.5c1.1,2,1.4,4.5,2.7,6.2"/>
<path class="st0" d="M4,3.7C5,5.9,5.7,9,7.5,10.7C8,11.1,8.7,11,9,11.4c0.4,0.6,1.8,0.3,2.4,0.9c0.8,0.8-0.9,6.6-0.1,8.2
	c0.6,1.4,0.1,3.1,0.6,4.6c0.5,1.5,1,2.9,1.6,4.4c1.3,2.9,3.4,6.1,5.6,8.4c3.3,3.3,7.1,7.2,9.4,11.2c1.8,3.2,5.2,8.6,2.2,12.5
	C26.4,67,20,69.6,15,74.6c-3.6,3.6-6.5,11.2-6.5,16.2c0,5-0.5,10.2-0.5,15.3c0,5.4-5.5,7.2-5.5,12.5"/>
<path class="st0" d="M78.5,119.6c-8.2,0-15.9,1-24,1c-6.7,0-14.7-1.1-21.3,0.4c-5.7,1.3-13.1,0.1-18.9,0.1c-2.5,0-5.2-0.5-7.5-0.5
	c-1.4,0-5.2-0.7-4.7-0.5"/>
<path class="st0" d="M69.5,5.7c-8-1.1-15.7,0-23.6-1.4c-5.8-1-12.6-0.1-18.5-0.1c-7.6,0-30.3,0.5-22.8,0.5"/>
<path class="st0" d="M12.5,13.2c11.5-1.6,23.3-2,34.9-2c4.2,0,8.4,2,12.7,2c1.6,0,10.1-0.7,10.4,0"/>
<path class="st0" d="M70,111.1c-13.1-2-26.4,0-39.6,0c-4.8,0-9.5-1-14.1-1c-3.5,0-10.7-1.6-11.2,2.5"/>
<path class="st0" d="M12.9,10c0.2,0,6.5-0.3,3.9-0.9c-1.4-0.3-2.8-0.2-4.2,0.2c-1.5,0.4,6.9-0.8,5.1-2.9c-0.8-0.9-6.3,0.3-4.6,0.1
	c3.2-0.3-2-0.3-2.9-0.3c-0.8,0-3.3-0.3-1.7,0.7c0.2,0.1,2.8,0.7,2.6,0.9c-0.3,0.4-1.5,0-2,0.2c-2.6,1.2,2.4,2.4,3.5,2.3
	c2.1-0.1,2.9-3.3,5.1-3.4c0.8,0,7-0.9,7.2-0.3c0.1,0.2-9.4,1.5,0.2,0.8c1.9-0.1,4.2-0.5,6.1-0.2c1.5,0.3-2.9,0.9-4.4,1.2
	c-1.4,0.3-2.6,0.3-3.9,0.9c-1.4,0.6,3-0.2,4.5-0.3c3.6-0.2-4.2,0.9-5.1,1.1c-3.7,0.7,4.7-1.4,2.4-1.4c-1,0-4.1-0.2-4.8,0.6
	c-0.1,0.1,4.8,0.4,5,0.3c5.2-0.3,20.5-2,15.4-2c-1.1,0-4.3,0-3.2,0c2.3,0,4.6-0.7,6.8-1.2c1.8-0.4,7.2-0.9,5.4-0.9
	c-2.6,0-5.2,0-7.8,0c-0.3,0-3.3,0-2.6,0c1.7,0,3.4-0.3,5.2-0.3c1.5,0-2.6-0.3-2.8-0.3c-1.2,0-5.2-0.6-6,0.5c-0.3,0.3,3.7,1.2,4,1.2
	c3.5,0.6,7,0.7,10.6,0.7c5.7-0.1-4-0.3-3.7,0.6c0.1,0.4,6.2,0,6.8,0c2-0.1,8.1-0.8,6.1-0.6c-2.7,0.3-5.4,0.8-8,1.1
	c-1.1,0.1-2.2,0.7-0.3,0.9c4.6,0.6,18.6-0.9,14-0.9c-2.8,0-5.8-0.2-8.4,0.8c-2,0.8,2.5,0.5,2.9,0.5c3-0.1,6.4-0.7,9.1-2
	c1.2-0.6-2.7,0.7-3.7,1.6c-2.2,2,4.9-1,4-1c-2,0-4.8,3.2-0.2,0.5C68.4,8.6,70,7.4,70,7.4c-0.4,1-1.1,1.7-2,2.3
	c-1.7,1.3-2.6,1.9-4.8,1.6c-1.3-0.2-5.4-1.5-4.7,0.4"/>
<path class="st0" d="M73.1,117.7c0,0-5.6,1.9-4.1,0.9c1.3-0.8,2.6-1.8,3.8-2.9c2.5-2.4-2,0-3.1,0.3c-2.7,0.9-3,1.3-0.7-1
	c1.5-1.4,3.6-4.2,0.2-2c-0.7,0.5-5.7,3.6-2.9,1.9c1.2-0.7,4.4-3.4,1-2.7c-1,0.2-2.1,0.5-3.1,0.9c-0.9,0.4-1.8,1.3-0.3,0.4
	c2.6-1.5,1.8-3.1-0.9-1.3c-1,0.6-2.2,1.2-3.1,2c-0.4,0.4,1.8-1.3,2.2-1.7c3.4-3.8-1.1-1-2.8,0.5c-1.2,1.1-3.9,3.1-0.6,3
	c1.8-0.1,3.5-0.9,5.1-1.8c0.3-0.2,2.6-1.4,1-1c-0.8,0.2-6.3,2.8-4.4,2.8c1.8,0,7.1-1.1,5.4-0.6c-2.2,0.7-4.6,1.1-6.8,1.9
	c-1.8,0.6,3.5,0.3,3.9,0.2c2.1-0.2,4.2-0.3,6.3-0.6c0.6-0.1,2-0.4,0.6,0.1c-1.5,0.5-2.7,0.4-0.2,0.3c3.1-0.2,4.9-1.1,7.6-2.5
	c0.2-0.1,2-0.6,1.3-0.1c-0.4,0.3,1.1,0.3,1.5-0.1c0.7-0.8-1.5-1.7-1.9-1.7c-2.4-0.4-0.3,7.9-5.3,6.2c-3.8-1.2-7.2-2.3-11.2-2.5
	c-2.2-0.1-4.2-0.1-6.4,0.2c-0.5,0.1-2.4,0.6-2.4,0.6c1.9-0.7,5-2.8,1.2-2.8c-2.3,0-4.6,0-6.9,0.3c-3.4,0.5,0.5,0.3,1.5,0.1
	c2.2-0.4,4.3-1.2,6.3-2.3c0.8-0.4,1.5-0.5,0.1-0.5c-4.9,0.1-9.6,1.3-14.4,2.3c-6.3,1.3,0.6,0.9,3,0.4c1.3-0.3,2.6-0.6,3.8-1
	c0.8-0.3-1.7,0-2.6,0c-4.3,0-9.1-0.6-13.1,1.1c-0.9,0.4-0.3,0.7,0.4,0.9c3.3,1,7.1,0.6,10.5,0.6c2.5,0,5.1,0.1,7.6,0
	c2.6-0.1,0.6-0.3-0.8-0.3c-3.1,0-6.3,0-9.4,0c-1.9,0-4.5-0.4-6.4,0.3c-1,0.4,1,0.3,1,0.3c3.6,0.1,7.2,0.3,10.8,0.1
	c2.4-0.1,4.8-0.2,7.1-0.8c0.3-0.1,1.8-0.5,0.5-0.2c-4.9,1.3-10,0.9-15,1.5c-0.6,0.1-1.5,0.4-0.4,0.7c2.4,0.6,5.3,0.4,7.8,0.3
	c1.8-0.1,4-0.2,5.7-1.1c0.9-0.4-4.1-0.7-4.3-0.7c-5.8-0.4-12.6-1.9-18.3-0.5c-0.5,0.1-1.2,0.5-0.3,0.7c2.9,0.4,6,0.4,8.9,0
	c0.2,0,4.5-0.9,4.4-1.3c-0.6-1.2-9-0.3-10.1-0.3c-4,0-8,0.2-11.9,0.3c-0.2,0-4.5,0.1-4.4,0.5c0.8,1.8,12.6-2.4,14-2.8
	c3.7-1.2-5.5-0.2-6.4-0.1c-2.7,0.4-5.4,0.9-8.1,1.4c-0.1,0-3.8,0.8-3.1,1.1c3.2,1.2,11.2-0.1,13.5-2.6c0.7-0.8-3.4-0.7-3.5-0.6
	c-3.1,0.2-6,0.8-9,1.3c-1.2,0.2-2.3,0.3-3.5,0.3c-0.9,0,1.8,0,2.8,0c0.8,0,9-1,4.8-1c-3.7,0-7.4,0.9-11.1,1.3
	c-0.9,0.1,1.8-0.3,2.6-0.6c1.2-0.5,4.8-2.1,3.5-1.7c-3.3,1.1-8,8-1.5,6.2c1.3-0.3,2.5-0.8,3.7-1.4c1.1-0.5-0.2-0.1-0.6,0.2
	c-2.3,1.7-2.8,2.4,0.4,2.5c2.5,0.1,4.8-0.3,7.2-0.9c1.3-0.3,5.1-1.5,4-0.8c-0.9,0.6-3,1.1-0.5,1.1c3,0,11.9-1.6,8.9-1.6
	c-2.2,0-8.4,0.8-6.4,1.5c2.2,0.8,7.8,0.2,9.8-0.8c1-0.5-3.2,0.3-3.2-0.8"/>
<path class="st0" d="M71.8,6.3c0.5-0.7,1.7-3,1.5-2.2C73.2,4.3,73,5.7,73,5.7c0.4-0.4,1.7-3.6,1-2.1c-1.2,2.6,1,0.3,0.3-0.3
	c-0.9-0.8-2.8-0.6-3.9-0.6c-1.7,0-3.3,0-5,0c-8.8,0-17.7,1.1-26.4,0.2c-7.9-0.8-15.8-0.4-23.7-0.4c-1.4,0-3.1,0.1-4.5,0.3
	c-0.7,0.1-1.4,0-2.1,0.2c-0.6,0.1-1.4,0.3-2,0.3c-0.9,0-2.5,0.2-3.2,0.6c-0.3,0.2-0.6,0.4,0,0.6C4,4.6,4.3,5.4,4.6,5.8"/>
</svg>
