<svg width="82" height="122" viewBox="0 0 82 122" fill="none" xmlns="http://www.w3.org/2000/svg">
<path d="M65.3124 29.1627C62.9335 37.8853 58.2248 42.388 52.1842 48.4288C49.0842 51.5289 45.4927 53.3807 43.3184 57.2946C42.2503 59.2172 42.1249 61.9057 42.1249 64.1144C42.1249 65.2178 42.2101 70.7807 40.5904 67.8653C39.5803 66.0471 40.079 63.1522 40.079 61.0455C40.079 58.6239 37.1635 56.2546 35.4756 54.5666C33.1801 52.2712 31.4674 49.1945 29.243 46.9701C27.8502 45.5773 26.939 43.7051 25.6815 42.1962C24.4887 40.7648 22.8411 39.6675 21.9306 38.0285C20.5609 35.5631 18.4941 33.8767 17.3083 31.2087C17.0986 30.7368 16.1334 27.8434 16.8915 27.7988C18.6694 27.6942 20.4905 27.7988 22.2716 27.7988C31.2841 27.7988 40.3601 27.7128 49.2858 27.4578C50.8945 27.4118 65.6991 25.9566 65.3124 27.1168" stroke="#D09CF8" stroke-width="3" stroke-linecap="round"/>
<path d="M41.7841 51.3271C42.5098 47.3203 42.925 43.7189 41.1211 39.9607C40.2707 38.1891 40.4201 41.3111 40.4201 41.9119C40.4201 42.025 40.3762 43.9286 41.0264 43.4085C42.0156 42.6171 41.4164 42.5294 41.4431 44.583C41.519 50.4223 44.3143 44.5421 41.4431 44.2231C39.9889 44.0615 39.5744 46.4416 39.8897 47.4246C40.0224 47.8384 42.3849 50.2265 42.7313 49.1296C43.4831 46.7492 34.5124 45.2492 39.0941 50.4556C39.4394 50.848 42.4454 52.3417 41.9735 51.5923C41.4707 50.7937 37.7353 47.2504 36.8208 48.0687C34.9468 49.7454 44.698 55.9329 38.2226 50.4935C37.5883 49.9607 35.6717 48.9598 36.063 50.7209C36.5647 52.9784 39.251 54.4204 40.9506 55.6842C43.1868 57.347 36.0999 51.0987 38.7531 53.7519C39.0285 54.0273 41.082 56.1229 41.1021 55.76C41.1843 54.2811 41.1004 52.7579 41.5947 51.3271C41.8577 50.5657 42.3866 49.9014 42.8829 49.2811C43.4209 48.6085 44.4363 46.3549 44.4363 47.2162C44.4363 47.6749 42.5635 50.478 44.4363 49.1864C46.2043 47.9671 50.5015 43.1022 48.9828 44.6209C47.5713 46.0324 46.3279 47.8128 45.3456 49.5463C43.1864 53.3566 50.0794 45.6837 47.221 49.7926C43.7691 54.7548 51.1898 46.2935 48.8691 47.6519C46.9998 48.7462 46.9782 48.7134 48.6229 46.8752C49.1935 46.2375 53.8308 41.1424 51.8623 43.6358C50.2038 45.7366 51.7208 44.6162 53.0368 43.4464C54.2538 42.3647 55.3052 41.1105 56.371 39.8849C56.384 39.8699 57.7893 38.4073 57.2614 38.4073C55.9761 38.4073 53.9661 40.0447 53.3778 41.0973C52.8764 41.9946 56.4803 38.3057 56.9772 37.6495C60.8568 32.5255 52.9388 39.9986 54.1356 39.9986C56.3337 39.9986 59.4162 35.7395 60.4629 34.088C62.3626 31.0907 58.742 32.9109 57.5455 33.9365C57.2837 34.1609 54.5496 37.3085 55.3291 37.3085C57.3921 37.3085 59.7759 34.3081 60.5197 32.5725C61.929 29.2842 54.4008 32.1075 54.4008 35.3004C54.4008 37.5154 62.554 28.3803 57.1477 30.9244C55.7135 31.5993 53.9349 33.3197 53.4536 34.8837C53.082 36.0915 56.806 33.7588 57.053 33.5197C57.5479 33.0405 60.2057 29.645 57.9244 29.9204C57.7291 29.9439 54.2935 30.6952 55.1586 31.4738C56.1122 32.332 58.1188 30.2185 58.6253 29.712C60.1678 28.1695 56.665 28.8216 55.6322 28.8216C53.6555 28.8216 55.3207 29.3201 56.371 29.4278C57.9317 29.5879 61.9907 29.7444 62.8877 27.9502C63.0878 27.55 52.8241 29.8446 55.9353 29.8446C57.036 29.8446 57.839 29.7084 56.2952 30.1856C53.6624 30.9993 51.1159 31.5214 48.6797 32.9135C46.4149 34.2077 47.4031 34.4622 49.4185 33.747C50.4204 33.3915 52.6279 31.4367 52.3359 32.4588C51.9351 33.8617 50.3282 35.128 49.4375 36.2476C47.8506 38.2425 49.6809 35.1226 49.9679 34.2775C50.7603 31.9444 49.3856 34.0861 48.945 35.0163C48.4863 35.9846 46.6274 39.7317 47.2779 40.87C47.6614 41.5412 49.6682 36.4142 49.5511 35.5657C49.1131 32.3897 45.374 37.1566 45.0614 37.8768C44.8845 38.2846 43.3616 42.5521 44.5878 42.4613C47.2322 42.2654 47.444 37.8736 47.0884 36.0582C46.6645 33.894 44.4495 31.0239 42.0304 32.8188C39.5859 34.6324 40.2674 39.4814 41.6326 41.6656C42.3969 42.8886 44.4125 44.3058 44.7773 42.0445C45.2976 38.8186 43.4366 35.3717 40.3065 34.2396C36.7267 32.9448 38.2914 39.9276 38.9425 41.4383C39.27 42.1981 43.3586 48.364 43.4701 46.9699C43.7888 42.987 40.6238 38.8816 37.6922 36.5507C35.0474 34.4479 32.0603 34.3501 34.1686 38.2557C35.7735 41.2287 38.0589 43.6136 40.1928 46.1743C41.5431 47.7947 38.3883 43.0944 38.0521 42.7265C37.5057 42.1285 29.1574 35.8456 29.1295 37.0433C29.0646 39.8362 34.6784 43.9886 36.3661 45.8333C39.9895 49.7938 33.7955 42.0384 33.1835 41.4004C31.4549 39.5982 29.5118 37.0302 27.273 35.793C26.3239 35.2685 28.3278 37.7017 29.0159 38.5399C31.5334 41.6068 34.2146 44.6835 37.0481 47.4625C40.3338 50.685 31.2307 40.2399 27.6519 37.3464C25.9962 36.0077 23.3393 34.3414 26.3637 37.2517C29.7942 40.5527 33.0593 43.9661 36.423 47.3299C38.5403 49.4472 33.1259 44.7342 32.5394 44.2041C30.6197 42.469 28.7569 40.6727 26.8373 38.9377C26.5273 38.6575 23.8124 36.2423 25.6438 37.8389C29.025 40.7866 32.8897 43.201 36.1577 46.269C37.5489 47.575 38.9281 49.152 39.8518 50.8345C40.3525 51.7465 38.3644 48.9958 38.2984 48.9212C35.2019 45.4208 31.6018 42.2866 28.0687 39.2408C26.4516 37.8468 27.5963 39.8212 28.0497 40.4532C29.0665 41.8706 30.2679 43.1482 31.5922 44.2799C34.7018 46.9372 30.0563 40.7462 29.6031 40.188C26.4329 36.2827 22.1489 33.3188 19.0513 29.4468C17.1334 27.0493 23.7031 33.533 26.4016 34.9973C26.8569 35.2444 30.8816 37.4835 30.1146 35.3004C29.4687 33.4622 26.4905 31.9444 24.8103 31.2843C23.0023 30.5741 28.5683 32.3139 30.4935 32.5725C30.9018 32.6274 35.8896 33.2082 33.2025 32.402C30.8832 31.7062 28.2469 31.1059 25.8333 30.8865C22.0852 30.5458 40.8874 30.8676 37.1239 30.8676C35.4781 30.8676 30.5527 31.2085 32.1984 31.2085C35.0672 31.2085 37.8976 31.036 40.7611 30.8676C42.9162 30.7408 46.8958 29.8703 43.0344 32.0042C42.3658 32.3737 38.8882 33.2648 41.3295 32.5725C44.318 31.725 47.316 30.8676 50.4415 30.8676C52.8306 30.8676 48.9067 31.8769 48.1303 32.2126C42.8479 34.4969 54.2181 33.0115 53.6431 34.3532C52.9864 35.8854 50.8122 36.8431 49.6459 38.0094C48.5902 39.0651 49.6333 38.5038 50.4226 38.7293C50.6005 38.7801 49.4472 40.2195 49.3617 40.3395C49.0851 40.7281 48.5752 41.9973 48.1114 42.1961C47.9615 42.2603 47.627 40.4898 47.581 40.3395C47.2884 39.3847 46.8089 38.259 45.6866 38.1042C43.8244 37.8473 40.8035 39.6887 39.8139 41.1731C38.779 42.7255 39.8859 42.8419 37.9574 41.5141C37.3856 41.1204 33.9271 39.3663 33.3161 40.2827C32.3161 41.7827 34.6708 44.2867 35.5894 45.1134C36.955 46.3425 35.7726 43.6163 35.2295 43.1433C34.5043 42.5117 29.4869 39.2568 28.5612 40.4911C27.7512 41.5711 31.53 44.5309 32.009 44.9808C32.7231 45.6516 36.459 49.2402 33.9034 46.5342C32.0727 44.5959 30.0291 42.6709 27.8792 41.0973C27.0179 40.4668 21.9354 36.7808 24.8103 39.4681C25.9421 40.5261 28.2398 42.1799 29.8115 42.4044C30.5678 42.5125 27.3026 40.0134 26.8184 39.7712C25.5731 39.1486 25.4157 38.4271 24.6587 37.1948C23.0167 34.5217 21.3739 32.2823 19.2786 29.9204C18.4058 28.9365 16.7702 27.9865 18.6724 29.6551C20.4954 31.2542 22.5336 32.3627 24.3935 33.9365" stroke="#D09CF8" stroke-width="3" stroke-linecap="round"/>
<path d="M71.7911 108.272C68.7191 105.486 66.067 103.234 62.7548 100.941C59.8642 98.94 56.4439 97.6959 53.4154 95.8452C48.6937 92.9598 42.131 87.7848 36.4984 89.5179C33.7775 90.3551 31.4595 93.2332 29.1481 94.8222C26.5971 96.5761 23.6819 98.4278 21.3243 100.449C19.4498 102.055 16.784 103.381 14.6939 104.711C12.8195 105.904 10.945 107.119 9.21907 108.462C8.17117 109.277 11.5866 108.965 12.1175 108.954C14.5633 108.907 16.931 108.272 19.4488 108.272C21.7256 108.272 24.1888 108.53 26.4392 108.197C28.7816 107.85 31.2432 107.122 33.581 106.927C42.7094 106.167 51.8347 106.227 61.0309 106.227C63.5761 106.227 66.4847 107.252 69.0442 107.572C69.4422 107.621 72.2479 107.863 71.6395 106.984C70.7568 105.709 68.4472 104.536 67.1877 103.688C64.8985 102.146 62.3672 100.887 59.7048 100.127C54.3548 98.598 58.2082 101.666 60.6899 102.892C61.0996 103.095 64.2787 103.982 63.3042 103.631C60.2649 102.537 57.2277 101.467 54.23 100.259C52.8332 99.6963 49.9464 97.9426 48.3384 98.4595C46.9823 98.8954 49.0869 100.846 49.4372 101.112C51.6254 102.768 54.3442 104.018 57.0148 104.616C59.0205 105.066 60.5345 105.118 57.7157 104.143C56.4409 103.701 46.1787 99.8741 45.421 101.642C44.8971 102.865 54.877 103.151 54.6657 102.817C53.6941 101.278 49.2065 100.848 47.6185 100.638C45.2072 100.319 42.7516 100.43 40.3251 100.43C37.8408 100.43 45.4316 101.609 47.7701 100.771C49.3697 100.197 47.9483 99.1703 46.9934 98.9141C44.2847 98.1874 40.8651 97.7209 38.0897 98.2321C33.6756 99.0453 38.9683 99.9324 40.8745 98.1185C44.1187 95.0313 39.3937 93.4363 36.7068 94.4812C35.3286 95.0172 42.9065 100.096 44.7012 97.0197C46.0073 94.7807 38.1229 91.8851 37.0667 93.1173C35.088 95.4258 43.6407 98.4449 43.6782 97.2092C43.7841 93.7142 34.7702 94.1824 33.1264 95.8263C29.8864 99.0663 34.6223 99.1096 36.8583 97.7017C37.9219 97.0321 37.8972 96.3756 36.5552 96.3756C33.5528 96.3756 30.802 97.5883 28.3525 99.2362C28.1379 99.3806 24.2938 102.008 25.7951 101.983C28.2262 101.943 31.4285 100.167 33.3727 98.8005C34.7468 97.8343 34.6992 97.3101 32.9938 97.3797C30.0478 97.4999 27.3928 98.5946 25.3215 100.733C24.7666 101.306 23.3866 102.447 24.8858 102.476C28.1192 102.537 31.0542 101.635 34.0925 100.581C34.6096 100.402 37.4251 99.4047 37.2372 99.4256C34.5532 99.7238 31.7027 100.681 29.2429 101.775C24.3034 103.97 37.2154 102.803 38.0708 102.665C41.1114 102.175 44.7414 101.841 47.4859 100.297C49.7686 99.0131 42.3976 101.54 39.8515 102.154C37.2509 102.78 34.5813 103.362 32.1224 104.446C29.7124 105.508 34.6174 105.158 35.0776 105.128C37.5515 104.967 39.7951 104.296 42.2005 103.859C43.8941 103.551 38.7685 103.563 37.0478 103.518C33.3244 103.42 29.6085 103.476 25.9845 104.446C25.2948 104.63 20.4124 107.063 22.8398 106.075C24.6436 105.341 28.074 104.08 29.186 102.362C29.3713 102.076 24.625 103.263 23.9007 103.499C22.2588 104.033 20.6977 104.502 19.4299 105.734C18.2955 106.836 21.8941 104.898 22.1578 104.749C26.2962 102.407 20.0008 104.367 18.6721 105.185C16.8905 106.281 20.0741 105.874 20.7181 105.81C24.5457 105.427 28.274 104.186 32.0845 103.65C34.0672 103.371 36.0679 103.598 38.0518 103.309C40.5745 102.941 42.8716 101.988 45.3074 101.301C49.1704 100.211 44.4724 101.003 46.2167 100.695C51.2224 99.8115 49.8225 97.1862 46.6713 94.6138C45.1503 93.3722 43.5013 92.2963 41.8596 91.2229C40.7748 90.5136 43.9849 92.7152 45.1179 93.3446C46.7053 94.2264 48.1947 95.1198 50.0434 95.2958C50.3923 95.3291 47.3471 94.6864 46.6713 94.4244C44.7242 93.6694 42.8876 92.6708 40.9503 91.9048C40.1384 91.5839 36.5976 90.864 39.3969 91.5639" stroke="#D09CF8" stroke-width="3" stroke-linecap="round"/>
<path d="M72.4629 2.49951C71.5134 6.65352 71.5167 8.4406 68.9663 10.9911C68.1337 11.8237 67.3494 12.7445 66.5798 13.5996C66.3972 13.8025 67.4678 20.0157 67.4678 20.9811C67.4678 25.9068 66.7737 31.5824 64.5818 35.9662C61.9523 41.2254 57.6654 47.7918 52.4827 50.8403C47.9172 53.5258 50.4695 58.6817 53.7315 61.2189C58.1414 64.6489 63.0569 66.6117 65.9693 71.7084C69.1926 77.3492 72.4629 83.5098 72.4629 90.1901C72.4629 93.1778 72.4629 96.1656 72.4629 99.1534C72.4629 101.432 70.907 105.072 71.4916 107.118C71.8462 108.359 75.7962 109 76.7086 110.642C77.8294 112.659 78.1322 115.121 79.4559 116.886" stroke="black" stroke-width="3" stroke-linecap="round"/>
<path d="M4.03124 2C4.96422 4.2073 5.70822 7.27463 7.52775 8.99305C7.97287 9.41343 8.6915 9.32382 9.02627 9.7423C9.47488 10.3031 10.8565 10.0463 11.4128 10.6025C12.1857 11.3755 10.5472 17.1621 11.274 18.7611C11.9098 20.1598 11.3977 21.8811 11.9123 23.3676C12.4209 24.8369 12.8905 26.304 13.5218 27.7244C14.8246 30.6558 16.9059 33.8558 19.1273 36.0772C22.4246 39.3745 26.2415 43.2683 28.5069 47.2328C30.3079 50.3845 33.7465 55.8103 30.7269 59.6926C26.3508 65.3189 20.0041 67.9457 15.0203 72.9294C11.4276 76.5221 8.52677 84.088 8.52677 89.1355C8.52677 94.0982 8.02728 99.2919 8.02728 104.398C8.02728 109.826 2.53271 111.612 2.53271 116.886" stroke="black" stroke-width="3" stroke-linecap="round"/>
<path d="M78.457 117.885C70.2917 117.885 62.5151 118.884 54.4808 118.884C47.7518 118.884 39.7581 117.735 33.2242 119.272C27.5721 120.602 20.1246 119.383 14.3263 119.383C11.802 119.383 9.14913 118.884 6.77827 118.884C5.42332 118.884 1.60698 118.171 2.03299 118.384" stroke="black" stroke-width="3" stroke-linecap="round"/>
<path d="M69.4661 3.99849C61.4298 2.94452 53.7566 3.99071 45.8229 2.61097C40.0023 1.5987 33.1793 2.49997 27.2858 2.49997C19.699 2.49997 -3.05619 2.99946 4.53068 2.99946" stroke="black" stroke-width="3" stroke-linecap="round"/>
<path d="M12.5225 11.4907C24.0134 9.86364 35.7758 9.49268 47.3767 9.49268C51.5595 9.49268 55.7425 11.4907 60.0863 11.4907C61.6955 11.4907 70.1369 10.8348 70.4649 11.4907" stroke="black" stroke-width="3" stroke-linecap="round"/>
<path d="M69.9657 109.393C56.8811 107.399 43.5691 109.393 30.394 109.393C25.5762 109.393 20.8994 108.394 16.2691 108.394C12.7689 108.394 5.54463 106.777 5.03027 110.892" stroke="black" stroke-width="3" stroke-linecap="round"/>
<path d="M12.935 8.2914C13.0949 8.27861 19.3932 7.98945 16.8423 7.4371C15.4306 7.13143 14.0001 7.26207 12.611 7.60796C11.1465 7.97265 19.5133 6.85164 17.6809 4.72233C16.8983 3.81289 11.3486 5.02379 13.1256 4.85522C16.3066 4.55347 11.147 4.53249 10.2095 4.53249C9.44019 4.53249 6.88998 4.27036 8.5513 5.21592C8.79889 5.35684 11.3695 5.87568 11.1434 6.16515C10.8568 6.53224 9.6076 6.11694 9.16121 6.31703C6.57793 7.4749 11.5637 8.68313 12.6682 8.63312C14.8121 8.53606 15.5983 5.29476 17.8143 5.21592C18.6033 5.18786 24.7704 4.36016 25.038 4.89319C25.1205 5.0576 15.5926 6.41814 25.2858 5.72851C27.1417 5.59646 29.4847 5.20568 31.3468 5.57663C32.8232 5.87074 28.4628 6.463 26.9821 6.73468C25.6183 6.9849 24.4225 7.07482 23.132 7.58898C21.7485 8.14021 26.1044 7.37239 27.592 7.28523C31.1473 7.07692 23.3765 8.19347 22.4649 8.36734C18.8073 9.06495 27.1694 6.92452 24.8664 6.92452C23.9115 6.92452 20.7217 6.75163 20.0253 7.53203C19.9692 7.59482 24.8177 7.88742 25.057 7.87375C30.2118 7.57942 45.5824 5.89937 40.4192 5.89937C39.3519 5.89937 36.1498 5.89937 37.2172 5.89937C39.4999 5.89937 41.7726 5.19619 43.9834 4.72233C45.7519 4.34326 51.1482 3.84905 49.3392 3.84905C46.728 3.84905 44.1168 3.84905 41.5056 3.84905C41.174 3.84905 38.1787 3.84905 38.9135 3.84905C40.6446 3.84905 42.3441 3.50733 44.0787 3.50733C45.6 3.50733 41.5182 3.19471 41.2388 3.18459C40.0585 3.14184 36.0608 2.57181 35.1968 3.67819C34.9251 4.02614 38.8896 4.82869 39.1613 4.87421C42.682 5.46413 46.1923 5.59895 49.7585 5.55764C55.501 5.49114 45.8004 5.27924 46.0228 6.16515C46.1328 6.60363 52.2604 6.19847 52.8081 6.16515C54.8348 6.04187 60.8857 5.32134 58.8691 5.55764C56.1804 5.8727 53.5149 6.3482 50.8258 6.65874C49.7018 6.78855 48.6412 7.31191 50.4828 7.53203C55.1173 8.08597 69.1213 6.5828 64.4536 6.5828C61.6646 6.5828 58.7028 6.34861 56.0673 7.41812C54.11 8.21239 58.5218 7.94645 58.9644 7.9307C61.9993 7.82274 65.3349 7.2335 68.113 5.95632C69.3319 5.39599 65.4378 6.70067 64.4345 7.58898C62.1929 9.57369 69.3491 6.62077 68.4371 6.62077C66.4288 6.62077 63.6569 9.80811 68.2465 7.0764C68.4323 6.9658 70.0097 5.68766 70 5.70952C69.5577 6.70058 68.8655 7.39234 68.0177 8.02562C66.2786 9.32482 65.4018 9.90509 63.2147 9.58235C61.9498 9.3957 57.7852 8.06052 58.5641 10" stroke="black" stroke-width="3" stroke-linecap="round"/>
<path d="M73.1467 116.066C73.119 116.073 67.5185 117.918 69.0222 116.969C70.3614 116.123 71.6689 115.169 72.8077 114.075C75.2596 111.719 70.7997 114.066 69.7567 114.407C67.0751 115.281 66.7408 115.699 69.0787 113.411C70.5492 111.972 72.718 109.248 69.2482 111.439C68.5223 111.897 63.5059 115.051 66.3666 113.337C67.5363 112.637 70.7893 109.919 67.3648 110.609C66.3166 110.821 65.244 111.082 64.2573 111.494C63.3269 111.882 62.4536 112.792 63.9183 111.936C66.4892 110.436 65.7361 108.865 62.9766 110.591C61.9571 111.228 60.7629 111.77 59.8879 112.6C59.458 113.008 61.7215 111.293 62.0726 110.904C65.4833 107.128 60.9351 109.873 59.2664 111.42C58.0862 112.515 55.3525 114.526 58.6449 114.407C60.483 114.34 62.1614 113.529 63.7111 112.619C64.0056 112.446 66.3404 111.17 64.747 111.623C63.9403 111.852 58.4374 114.375 60.3399 114.407C62.154 114.437 67.4792 113.258 65.7451 113.78C63.503 114.455 61.1878 114.89 58.9839 115.66C57.1444 116.303 62.4952 115.924 62.9013 115.881C64.9952 115.661 67.0999 115.55 69.1917 115.328C69.8324 115.26 71.2289 114.931 69.7567 115.402C68.2654 115.879 67.0941 115.84 69.5118 115.715C72.6469 115.554 74.4261 114.622 77.0641 113.227C77.2476 113.13 79.015 112.599 78.4012 113.079C78.0088 113.387 79.4935 113.395 79.8514 113.006C80.5896 112.203 78.3608 111.355 77.9115 111.273C75.5014 110.831 77.5642 119.141 72.6005 117.522C68.7967 116.281 65.4217 115.262 61.3569 114.996C59.203 114.856 57.1087 114.9 54.9724 115.236C54.4322 115.321 52.5791 115.863 52.5805 115.863C54.4399 115.213 57.6221 113.113 53.7859 113.079C51.4683 113.059 49.1729 113.09 46.874 113.411C43.4902 113.884 47.335 113.695 48.343 113.503C50.5474 113.085 52.6371 112.261 54.6146 111.236C55.4457 110.805 56.1096 110.741 54.7276 110.757C49.789 110.813 45.131 112.047 40.3388 113.061C34.046 114.393 40.9654 113.971 43.3145 113.485C44.6193 113.215 45.8672 112.898 47.1188 112.453C47.939 112.161 45.3737 112.416 44.501 112.416C40.2364 112.416 35.3922 111.828 31.3741 113.559C30.4883 113.94 31.0817 114.27 31.7507 114.48C35.0208 115.506 38.8438 115.07 42.2221 115.07C44.7469 115.07 47.2887 115.153 49.812 115.052C52.3796 114.949 50.3764 114.738 49.0399 114.738C45.9135 114.738 42.7871 114.738 39.6608 114.738C37.7346 114.738 35.1313 114.313 33.2951 115.07C32.2521 115.5 34.2454 115.418 34.3121 115.42C37.9318 115.562 41.4742 115.748 45.1037 115.549C47.4685 115.42 49.9354 115.329 52.2416 114.738C52.5875 114.65 54.0184 114.229 52.7689 114.554C47.8577 115.831 42.8138 115.473 37.8151 116.066C37.2182 116.136 36.3077 116.431 37.4384 116.729C39.8767 117.373 42.7871 117.132 45.2732 116.987C47.0991 116.881 49.2876 116.737 50.9609 115.918C51.8532 115.481 46.8397 115.232 46.6292 115.218C40.8279 114.828 34.0312 113.332 28.2854 114.738C27.7394 114.872 27.0444 115.263 28.0029 115.402C30.9193 115.825 33.9842 115.813 36.8923 115.365C37.0566 115.34 41.4332 114.447 41.2428 114.075C40.6116 112.839 32.2341 113.739 31.1481 113.743C27.1637 113.757 23.1897 113.961 19.2077 114.056C18.9981 114.061 14.6614 114.15 14.8383 114.554C15.6055 116.306 27.4742 112.156 28.8127 111.715C32.4825 110.507 23.2791 111.491 22.447 111.605C19.7334 111.975 17.0433 112.524 14.3486 113.006C14.2309 113.027 10.5968 113.816 11.2976 114.075C14.4778 115.251 22.4561 114.006 24.7824 111.476C25.5204 110.673 21.3819 110.823 21.2417 110.83C18.1858 110.994 15.2167 111.63 12.2016 112.084C11.0259 112.261 9.85207 112.416 8.66092 112.416C7.738 112.416 10.5082 112.433 11.4294 112.379C12.1994 112.334 20.4165 111.373 16.232 111.42C12.5148 111.462 8.8551 112.279 5.17673 112.729C4.2989 112.837 6.93417 112.439 7.75692 112.121C8.97894 111.648 12.5441 110.018 11.2976 110.425C8.03413 111.49 3.3361 118.376 9.82859 116.655C11.1127 116.315 12.3766 115.816 13.5765 115.254C14.7145 114.722 13.36 115.15 12.9361 115.457C10.636 117.125 10.1766 117.84 13.3316 117.983C15.8151 118.095 18.1471 117.648 20.5448 117.079C21.8658 116.766 25.6902 115.563 24.5375 116.268C23.6187 116.83 21.5057 117.393 24.0667 117.393C27.0809 117.393 35.9703 115.771 32.9561 115.771C30.7696 115.771 24.5332 116.594 26.5904 117.319C28.7782 118.09 34.4065 117.531 36.3838 116.563C37.3821 116.075 33.1444 116.826 33.1444 115.734" stroke="black" stroke-width="3" stroke-linecap="round"/>
</svg>
